<?xml version='1.0' encoding='UTF-8'?>
<svg xmlns="http://www.w3.org/2000/svg" xmlns:inkscape="http://www.inkscape.org/namespaces/inkscape" xmlns:sodipodi="http://sodipodi.sourceforge.net/DTD/sodipodi-0.dtd" version="1.1" id="svg374" width="619" height="793" viewBox="203.726 117.206 619.955 793.604" sodipodi:docname="new_icon_logo1.svg" inkscape:export-filename="icon_logo1.svg" inkscape:export-xdpi="96" inkscape:export-ydpi="96" inkscape:version="1.2.2 (b0a8486541, 2022-12-01)">
  <defs id="defs378" />
  <sodipodi:namedview id="namedview376" pagecolor="#ffffff" bordercolor="#000000" borderopacity="0" inkscape:showpageshadow="2" inkscape:pageopacity="0.0" inkscape:pagecheckerboard="0" inkscape:deskcolor="#d1d1d1" showgrid="false" inkscape:zoom="0.84765625" inkscape:cx="596.94009" inkscape:cy="800.4424" inkscape:window-width="1920" inkscape:window-height="1043" inkscape:window-x="0" inkscape:window-y="0" inkscape:window-maximized="1" inkscape:current-layer="g380" />
  <g inkscape:groupmode="layer" inkscape:label="Image" id="g380">
    <g id="g384" transform="translate(1.5164347,3.7957197)">
      <path style="fill:#93a0af" d="M 496.68557,886.75743 C 488.03562,877.71705 476.23985,864.58362 458,843.68486 426.80171,807.93864 413.63896,792.9379 410.8318,789.93031 408.99931,787.96698 403.9,781.95495 399.5,776.57024 c -4.4,-5.38472 -10.95383,-13.05235 -14.56407,-17.03919 -3.61024,-3.98684 -9.72677,-11.4748 -13.5923,-16.63992 -3.86552,-5.16512 -9.91169,-12.58027 -13.43593,-16.4781 -3.52423,-3.89783 -11.48654,-13.57283 -17.694,-21.5 C 334.00623,696.98586 325.69871,686.45 321.75253,681.5 c -3.94617,-4.95 -8.99234,-11.55752 -11.21369,-14.68337 -2.22136,-3.12586 -7.30956,-10.10086 -11.3071,-15.5 -8.81234,-11.90209 -11.664,-16.0483 -32.54315,-47.31663 -18.29582,-27.39956 -21.42902,-32.65267 -25.05074,-42 -1.38517,-3.575 -4.36357,-11 -6.61866,-16.5 C 223.7553,518.02817 216.65457,487.60099 212.9659,451 l -0.75585,-7.5 0.85653,-24 c 0.90939,-25.48095 0.91032,-25.48855 6.43127,-52.5 4.08506,-19.98631 5.82482,-26.33999 12.18491,-44.5 l 4.55292,-13 9.48043,-18 9.48043,-18 11.55729,-17.4808 11.55728,-17.4808 8.11988,-9.0192 c 4.46593,-4.96056 9.09273,-10.39907 10.28178,-12.08558 1.18906,-1.6865 8.04011,-8.1743 15.22457,-14.41732 C 319.1218,196.77329 325,191.35013 325,190.96485 c 0,-0.38529 4.3875,-3.70998 9.75,-7.38821 5.3625,-3.67823 13.125,-9.03931 17.25,-11.91351 7.2507,-5.05211 15.63676,-9.99523 25,-14.73612 2.475,-1.25317 5.625,-3.04389 7,-3.97938 C 387.20186,150.76923 407.73657,142 409.63584,142 c 0.79176,0 5.44594,-1.54727 10.34263,-3.43837 4.89669,-1.8911 11.29222,-3.90034 14.2123,-4.46497 2.92008,-0.56463 10.48423,-2.20362 16.80923,-3.64221 17.57337,-3.99696 19.89148,-4.30186 43.5,-5.72141 l 22,-1.32284 10.5,0.66082 c 20.84423,1.31182 53.36123,6.48477 62.5,9.94277 2.75,1.04057 8.825,2.9868 13.5,4.32496 4.675,1.33815 13.45,4.55463 19.5,7.14772 6.05,2.5931 13.96924,5.94255 17.59832,7.44323 15.61231,6.45596 38.43347,20.99912 55.43618,35.32763 2.76897,2.33347 6.50237,5.36767 8.29643,6.74267 l 3.26193,2.5 1.47275,4.31996 1.47275,4.31996 -1.21014,4.03908 -1.21013,4.03908 -22.16483,22.31795 c -12.19065,12.27488 -23.69222,23.24913 -25.55904,24.38722 -6.82973,4.16371 -10.48477,2.8855 -28.2515,-9.87986 l -12.85729,-9.23793 -15.09792,-7.39372 C 573.35375,219.55677 556.31498,215.08281 522,212.96263 l -18.5,-1.14304 -9,1.08884 c -18.24246,2.20702 -33.99514,5.91684 -55.5,13.07048 -12.77233,4.24874 -34.74394,15.92754 -48.01346,25.52109 -22.83535,16.50943 -52.51696,49.19807 -59.86982,65.93521 -1.19246,2.71436 -3.73945,7.30253 -5.65998,10.19592 -8.20049,12.35456 -15.60451,32.98368 -22.56435,62.86887 l -1.86308,8 -0.59771,11.5 c -0.32873,6.325 -0.62037,18.475 -0.64809,27 l -0.0504,15.5 3.59679,17 3.59678,17 5.03279,15.30824 c 4.98881,15.17445 12.48899,31.82858 16.07992,35.70541 1.02583,1.1075 2.52893,3.5825 3.34023,5.5 7.1265,16.84346 46.77492,57.85311 66.90127,69.19815 3.20834,1.80851 7.27014,4.28487 9.02622,5.50303 1.75608,1.21815 7.24288,4.32172 12.19288,6.89682 l 9,4.682 17.5,5.87521 17.5,5.87522 11,2.03749 c 6.05,1.12062 13.925,2.51896 17.5,3.10742 l 6.5,1.06994 15,-0.62336 c 39.84212,-1.65573 57.45621,-5.73497 85.98318,-19.91279 7.69076,-3.82227 14.89076,-7.31532 16,-7.76233 1.10925,-0.447 6.6256,-4.10846 12.25856,-8.13659 5.63296,-4.02812 12.08047,-8.44886 14.3278,-9.82386 2.24733,-1.375 10.36049,-8.8 18.02924,-16.5 l 13.94319,-14 9.94326,-14.19036 9.94326,-14.19035 8.03412,-16.04463 c 9.98757,-19.94577 11.15822,-22.99268 15.97334,-41.57466 l 3.88693,-15 1.16308,-11.5 c 2.3719,-23.45229 1.15242,-57.48441 -2.56403,-71.55471 -0.86369,-3.26991 -2.64831,-10.22029 -3.96581,-15.44529 -1.3175,-5.225 -3.73252,-12.425 -5.36672,-16 -1.63419,-3.575 -4.83265,-10.66684 -7.10767,-15.75964 l -4.13641,-9.25963 0.69778,-3.24037 c 0.38378,-1.7822 1.29162,-4.36536 2.01744,-5.74036 1.7828,-3.37738 42.88325,-45.87735 47.30427,-48.91503 l 3.51481,-2.41503 4.56019,-0.42409 4.56019,-0.42409 3.4054,2.33912 3.4054,2.33912 6.91686,13.48461 c 3.80428,7.41653 7.2724,13.94153 7.70695,14.5 2.18347,2.80614 15.89887,41.4235 17.40838,49.01539 0.32807,1.65 2.16945,11.325 4.09195,21.5 l 3.49546,18.5 1.61752,17 1.61752,17 -1.12085,19.5 c -1.26252,21.96472 -2.5675,33.94199 -4.5761,42 -0.75404,3.025 -2.58442,10.9 -4.06752,17.5 -3.00497,13.37258 -7.57427,28.73114 -12.31711,41.40089 -7.08473,18.92574 -35.4656,67.19079 -50.62809,86.09911 -2.42574,3.025 -5.72668,7.75 -7.33544,10.5 -1.60875,2.75 -6.00645,8.825 -9.77267,13.50001 -3.76621,4.675 -9.00182,11.52899 -11.63468,15.23107 -4.68982,6.59439 -9.95988,13.21799 -23.2878,29.26892 -3.65355,4.4 -9.01213,11.15 -11.90795,15 -2.89582,3.85 -8.50803,10.6 -12.47156,15 -3.96354,4.4 -8.72196,10.25 -10.57426,13 -1.85231,2.75 -6.88376,8.825 -11.18101,13.5 -4.29725,4.675 -9.70295,10.975 -12.01268,14 -2.30972,3.025 -7.2546,8.92366 -10.98861,13.10813 -3.73401,4.18447 -8.63613,9.80947 -10.89361,12.5 -2.25747,2.69053 -6.98247,8.19063 -10.5,12.22245 -3.51752,4.03183 -7.7455,9.00592 -9.3955,11.05355 -1.65,2.04763 -9.975,11.53793 -18.5,21.08956 -8.525,9.55163 -17.38393,19.54331 -19.68651,22.20373 -2.30258,2.66042 -5.67758,6.33317 -7.5,8.16167 -1.82242,1.8285 -7.33023,7.88307 -12.23959,13.45461 l -8.92609,10.13006 -3.84414,1.53812 c -2.11428,0.84597 -5.29754,1.54146 -7.07391,1.54555 l -3.22976,0.007 -9.81443,-10.25743 z m 27.67401,-106.79078 5.43461,-2.03334 4.3529,-3.85457 c 2.3941,-2.12001 5.79376,-6.26751 7.55481,-9.21665 l 3.20189,-5.36209 1.02433,-6.4474 1.02433,-6.44741 -1.56141,-6.05259 c -0.85877,-3.32893 -3.14426,-9.07192 -5.07886,-12.7622 l -3.51745,-6.70959 -3.40446,-2.59671 c -4.29026,-3.27233 -12.69607,-6.19311 -20.29889,-7.05327 l -5.8722,-0.66436 -5.35959,1.76781 -5.35959,1.76781 -7.56523,7.59896 -7.56524,7.59895 -1.81148,5.85696 -1.81148,5.85696 0.51725,6.64304 0.51726,6.64304 2.25967,5.77985 2.25966,5.77986 3.74439,4.25385 3.74439,4.25384 5.15646,2.8065 c 5.25833,2.86194 11.237,4.29824 18.76684,4.50848 L 518.92497,782 Z M 471.5,549.08683 l -5,-2.8944 -6.5,-7.32173 C 456.425,534.84375 446.3,523.86918 437.5,514.48275 410.61769,485.80903 389.76743,463.18101 388.01734,460.78104 387.10249,459.52647 382.16775,454.225 377.05126,449 l -9.30271,-9.5 -1.95081,-4.31724 -1.95082,-4.31724 0.63781,-3.77512 0.6378,-3.77512 4.68873,-5.6345 c 2.57881,-3.09897 6.60324,-7.25668 8.94317,-9.23936 2.33994,-1.98267 6.27013,-6.2244 8.73376,-9.42607 l 4.47931,-5.82121 4.33198,-2.09707 C 398.68206,389.94368 401.99686,389 403.66569,389 h 3.03423 l 3.90004,2.89687 c 4.4509,3.30603 18.48023,16.1481 32.99054,30.19864 19.06931,18.4651 36.86019,34.90449 37.774,34.90449 0.50693,0 2.5366,-1.9125 4.51037,-4.25 1.97378,-2.3375 8.77189,-9.52045 15.10691,-15.96212 6.33502,-6.44167 17.59322,-18.04171 25.01822,-25.77786 7.425,-7.73616 18.9,-19.6643 25.5,-26.50699 6.6,-6.84269 17.9571,-18.64265 25.238,-26.22214 26.89235,-27.9952 47.82227,-48.99975 49.94626,-50.12437 1.20134,-0.63608 4.12634,-1.15385 6.5,-1.1506 l 4.31574,0.006 13.28379,12.60908 c 16.7226,15.87322 18.52966,19.41613 15.03624,29.47986 l -1.17998,3.39922 -4.31409,4.32301 c -2.37275,2.37766 -7.79479,8.45266 -12.04898,13.5 -4.25419,5.04735 -14.49436,17.00602 -22.75594,26.57484 -30.50088,35.32707 -35.74,41.50938 -37.31086,44.02782 -2.18433,3.50196 -11.41172,14.34314 -18.08317,21.24575 -3.01482,3.11928 -6.43504,7.25137 -7.60047,9.18242 -1.16544,1.93106 -6.51855,8.22246 -11.8958,13.9809 -5.37725,5.75843 -11.18264,12.42634 -12.90088,14.81757 -1.71824,2.39123 -6.29795,7.72269 -10.17714,11.84769 -3.87919,4.125 -9.8686,10.95592 -13.30978,15.17982 -3.44119,4.22389 -9.29111,10.7809 -12.99983,14.57112 l -6.74311,6.89132 -4.92814,1.67887 c -2.71048,0.92338 -6.76048,1.67465 -9,1.66949 l -4.07186,-0.009 -5,-2.8944 z" id="path394" />
      <path style="fill:#6d9e92" d="m 506.21631,894.7181 c -3.11445,-1.80636 -35.66648,-37.02233 -48.43876,-52.40279 -2.04734,-2.46543 -8.13951,-9.50746 -13.53815,-15.64896 C 422.77556,802.2491 406.18419,783.11151 400,775.6377 396.425,771.31719 390.33306,764.11872 386.46235,759.64111 382.59165,755.1635 376.7541,748.125 373.49002,744 370.22594,739.875 364.10346,732.45 359.88451,727.5 331.43622,694.12228 299.9372,652.05089 269.55813,606.85636 246.62941,572.7456 236.70632,552.61718 227.23192,521 c -6.32635,-21.11175 -7.79711,-28.14853 -11.80906,-56.5 l -1.69809,-12 0.12353,-22 C 214.21241,365.65252 230.91854,311.18019 267.12106,256.79773 306.7227,197.30922 369.55745,151.732 435,135.02663 c 29.52155,-7.5359 49.05826,-10.00359 79.5,-10.0417 l 18,-0.0225 17.5,2.46859 c 17.23619,2.43137 36.26873,5.99902 38.12563,7.14665 0.52207,0.32266 4.9628,1.66075 9.8683,2.97355 7.83288,2.09622 40.00926,14.8135 48.21073,19.05465 20.07869,10.38309 43.55688,26.7267 57.47953,40.01258 l 4.31581,4.11842 -0.0354,4.88158 c -0.0195,2.68487 -0.58433,5.86888 -1.25521,7.07558 -1.82282,3.27868 -43.42839,45.16373 -47.06515,47.3813 l -3.1442,1.91722 -3.59496,0.004 -3.59497,0.004 -5.90503,-3.97535 C 640.15727,255.8382 633,250.88799 627.5,247.02418 l -10,-7.02512 -12,-5.86703 c -29.8072,-14.57334 -49.75436,-19.92549 -82.35779,-22.09794 l -15.35779,-1.02333 -11.52628,1.01044 c -54.56768,4.78366 -103.02623,28.90443 -139.81703,69.59547 -15.81668,17.49342 -24.14387,29.9714 -36.88267,55.26729 C 312.76756,350.36884 305.0136,374.5152 301.53825,393 l -1.59809,8.5 -0.49942,13.5 c -0.27468,7.425 -0.70473,15.428 -0.95567,17.78445 -2.01341,18.90696 9.71372,68.58192 22.03715,93.34722 25.53437,51.31415 73.0131,92.83366 126.31708,110.46256 14.75953,4.88133 17.42659,5.56507 33.1607,8.50118 l 10.5,1.95939 12.5,0.58773 12.5,0.58772 17.30663,-1.65828 17.30662,-1.65828 9.19338,-2.39649 c 23.12428,-6.02792 48.49681,-17.02534 64.69337,-28.04057 4.125,-2.8054 11.1,-7.54646 15.5,-10.53569 l 8,-5.43497 13.06464,-13.00298 13.06464,-13.00299 10.65111,-15 10.6511,-15 7.94446,-16 c 9.26318,-18.65589 10.98645,-23.16574 15.70376,-41.09721 l 3.50434,-13.32078 1.45798,-11.753 1.45797,-11.753 v -19.06424 c 0,-23.55991 -0.95694,-31.72583 -6.08362,-51.91362 l -4.03826,-15.90185 -4.0044,-9.59815 C 708.6713,346.81917 705.78136,340.25 704.45163,337.5 c -1.32974,-2.75 -2.65632,-6.35 -2.94798,-8 l -0.53027,-3 1.76331,-3.75303 1.76331,-3.75303 21,-21.65377 c 11.55,-11.90958 22.75502,-22.93322 24.90004,-24.49698 L 754.30008,270 l 4.09996,0.004 4.09996,0.004 3,1.84416 3,1.84417 8.14238,15.9021 c 14.72852,28.76482 21.93396,50.25449 28.36174,84.58669 l 2.9505,15.75929 1.54882,18.43969 1.54882,18.43968 -1.04275,18.33837 c -2.09655,36.87095 -9.5294,71.02981 -22.26849,102.33837 -3.94346,9.69174 -17.84546,36.86222 -21.65016,42.3137 -1.03115,1.47747 -5.60426,8.5363 -10.16245,15.6863 -4.5582,7.15 -11.72239,17.725 -15.92044,23.5 -4.19804,5.775 -9.62972,13.27531 -12.07039,16.66735 -16.46246,22.87954 -59.30189,76.6897 -82.43758,103.54901 -3.3,3.83112 -9.75202,11.53722 -14.33781,17.12466 -4.5858,5.58744 -12.48035,14.88398 -17.54344,20.65898 -5.06309,5.775 -12.61167,14.55 -16.77462,19.5 -13.54491,16.10572 -61.64847,70.19316 -71.90381,80.84835 l -7.55969,7.85442 -4.44031,0.41993 -4.44032,0.41993 -2.28369,-1.32453 z m 20.98605,-115.11851 5.70236,-2.69976 4.4678,-4.96927 c 2.4573,-2.7331 5.51623,-7.09806 6.79764,-9.69992 L 546.5,757.5 v -10 -10 l -3.37848,-6.91217 -3.37848,-6.91218 -4.21682,-4.09828 -4.21683,-4.09828 -6.90469,-2.47978 -6.9047,-2.47979 -7,0.0323 -7,0.0323 -4.78004,2.33217 c -2.62902,1.2827 -7.00276,4.33059 -9.71942,6.77311 l -4.93939,4.44093 -3.28058,6.66379 -3.28057,6.6638 v 9.02102 9.02103 l 3.09361,6.5 3.09361,6.5 3.40639,3.36209 c 5.14291,5.07603 9.82024,7.89689 15.90639,9.59303 l 5.5,1.53279 6.5,-0.34428 6.5,-0.34428 5.70236,-2.69976 z m -53.97779,-230.71746 -4.27544,-2.1163 -9.72456,-10.59901 c -5.34852,-5.82945 -14.71678,-15.78926 -20.81837,-22.13291 -6.10159,-6.34365 -13.07659,-13.78391 -15.5,-16.53391 -4.90541,-5.56649 -25.73192,-28.24102 -41.15042,-44.80186 -12.89487,-13.85025 -15.47431,-17.14012 -16.26641,-20.74653 l -0.64676,-2.94469 1.18168,-3.58051 1.18167,-3.58051 13.42623,-14.17295 13.42622,-14.17295 4.08857,-1.8392 4.08857,-1.83919 3.32071,0.62297 3.32072,0.62297 11.81151,10.55287 c 6.49633,5.80408 12.88837,11.7388 14.20454,13.18827 4.12602,4.54391 43.518,41.27072 45.36366,42.29445 l 1.75669,0.97439 2.24331,-2.33096 C 485.49051,454.46454 497.567,441.9596 511.09333,427.9578 524.61966,413.95601 555.35538,382.025 579.39493,357 l 43.70826,-45.5 3.1828,-1.75 3.18281,-1.75 h 3.78592 3.78593 l 9.72968,8.85243 c 5.35132,4.86884 11.60801,10.89673 13.90376,13.39531 l 4.17408,4.54286 0.98171,3.55546 0.98171,3.55545 -0.77388,3.4313 c -1.03181,4.57489 -1.09695,4.66984 -11.09265,16.16719 -4.78165,5.5 -16.96292,19.65123 -27.06948,31.44717 -10.10657,11.79595 -22.95457,26.75442 -28.55112,33.24106 -5.59654,6.48663 -11.20636,13.2604 -12.46626,15.05282 -2.35312,3.3477 -11.92511,14.54138 -17.75149,20.75895 -1.80388,1.925 -4.46506,5.075 -5.91373,7 -1.44867,1.925 -7.14723,8.62563 -12.66346,14.89029 -5.51624,6.26467 -12.2506,14.13967 -14.96525,17.5 -2.71466,3.36034 -8.56466,10.19921 -13,15.1975 -4.43535,4.99828 -12.11427,13.71936 -17.06427,19.38017 l -9,10.29239 -5,2.36006 -5,2.36005 -4.5,0.009 -4.5,0.009 -4.27543,-2.11629 z" id="path392" />
      <path style="fill:#637289" d="m 505.40726,893.75 c -2.9556,-2.23061 -20.40023,-20.85785 -33.94875,-36.25022 -23.36821,-26.54843 -30.57864,-34.7834 -44.49454,-50.81686 -8.50518,-9.7994 -19.89535,-23.0744 -25.31147,-29.5 C 396.23637,770.75731 388.49967,761.675 384.45983,757 c -4.03985,-4.675 -10.85847,-12.86206 -15.1525,-18.19346 -4.29403,-5.3314 -15.91853,-19.7314 -25.83222,-32 -21.184,-26.21606 -42.42426,-54.07004 -53.05161,-69.57063 -1.60793,-2.34525 -6.74493,-9.77025 -11.41557,-16.5 C 259.48509,592.60617 248.00732,573.7957 242.29943,560.5758 228.31799,528.19373 221.78307,505.71357 216.84141,473 L 214.5,457.5 l 0.0748,-28.5 0.0748,-28.5 1.25844,-8 c 8.15387,-51.83515 20.82395,-87.28303 44.85726,-125.5 16.84363,-26.78418 29.98768,-42.73755 52.52389,-63.75003 L 327.5,189.99995 l 15.74925,-11.0947 15.74925,-11.09469 14.42284,-7.83493 C 416.92534,136.34294 462.55607,125.08023 515,125.03076 l 15.5,-0.0146 11.5,1.49904 c 63.7958,8.31585 109.58557,27.23173 154.20701,63.70334 l 9.44327,7.71852 1.17486,2.57853 c 1.60936,3.53216 1.47299,8.05391 -0.35935,11.91528 l -1.53421,3.23311 -22.72657,22.58893 -22.72658,22.58893 -2.74579,0.68915 C 652.40953,262.616 647.94738,261.22486 642,256.93785 625.89735,245.33069 614.75712,238.34314 604.17159,233.21053 575.24479,219.18477 556.15302,214.11841 523.78805,211.87925 l -17.44543,-1.20696 -11.42131,1.17659 c -31.29207,3.2236 -66.85544,14.51694 -87.77518,27.87348 -3.10537,1.98268 -8.79613,5.63182 -12.64613,8.10922 -3.85,2.47739 -11.43472,8.36627 -16.85492,13.08639 -5.42021,4.72012 -10.52658,9.03203 -11.34748,9.58203 -5.71315,3.82778 -30.87665,35.78653 -35.82553,45.5 -1.82142,3.575 -5.34804,10.04574 -7.83695,14.37942 -9.03726,15.73566 -19.89838,49.64988 -22.66285,70.76551 l -1.22476,9.35507 -0.11576,19.5 -0.11575,19.5 1.30919,8 c 5.21575,31.87157 16.61027,65.27867 27.82712,81.5851 1.84123,2.67668 3.34769,5.22699 3.34769,5.66736 0,1.62304 10.78648,16.21693 20.5,27.73607 l 10,11.85889 13.5,11.41145 c 13.34942,11.28417 15.91406,13.12325 33.5,24.02251 19.84344,12.29839 47.22642,21.60191 78.5,26.6708 l 9.5,1.53978 12,6e-4 c 24.87095,10e-4 44.05285,-2.71547 64.18588,-9.09062 l 12.81412,-4.05761 17,-8.31803 17,-8.31803 8,-5.77949 c 4.4,-3.17873 10.7,-7.57312 14,-9.76533 l 6,-3.98583 13.56634,-13.58881 13.56634,-13.58881 9.62874,-13.56212 c 10.79732,-15.20807 18.38445,-28.76268 25.67268,-45.86492 L 714.86599,500.5 718.3933,487 c 4.44271,-17.00347 5.33851,-22.70488 6.65135,-42.3334 l 1.059,-15.83339 -1.08558,-15.52477 C 723.80685,395.98689 723.33175,393.22753 718.24997,374 l -3.56801,-13.5 -5.43693,-12.5 c -2.9903,-6.875 -6.04762,-14.13262 -6.79404,-16.12805 l -1.35712,-3.62806 1.02902,-3.72678 1.02901,-3.72677 22.51699,-23.14517 c 12.38435,-12.72984 24.16267,-24.15536 26.17405,-25.39005 l 3.65706,-2.24487 3.34571,-0.005 c 1.84014,-0.003 4.61214,0.74298 6.16001,1.65733 l 2.8143,1.66245 4.41613,8.08755 c 20.57943,37.68854 32.65745,77.99256 36.85828,122.99503 l 1.20487,12.90748 -0.61131,22.59252 -0.61132,22.59252 -1.54476,10 c -3.40118,22.01754 -7.56001,38.90335 -15.27004,62 l -4.67343,14 -8.24942,16.5 -8.24942,16.5 -12.13811,19 c -13.29986,20.8185 -20.56316,31.05074 -46.84979,66 -9.07792,12.06949 -36.87987,46.80938 -49.61793,62 -5.07321,6.05 -11.86997,14.2161 -15.1039,18.14689 -10.49848,12.76074 -29.82014,35.63382 -37.94594,44.9206 -4.36366,4.98713 -11.53393,13.27141 -15.93393,18.40952 -15.46368,18.05774 -58.59446,66.81763 -68,76.87484 l -6,6.41572 -3.21788,1.36622 c -4.56109,1.9365 -7.44889,1.70181 -10.87486,-0.88379 z m 19.27997,-112.90593 5.76225,-2.15594 5.11044,-4.83324 c 2.81074,-2.65829 6.28385,-6.98919 7.71802,-9.62422 l 2.60758,-4.79098 1.0334,-6.41683 1.0334,-6.41683 -1.49586,-6.44999 c -0.82271,-3.54749 -2.91791,-9.11805 -4.65599,-12.37903 l -3.16015,-5.92904 -3.85247,-3.29756 c -2.11885,-1.81366 -6.42542,-4.30372 -9.57016,-5.53345 l -5.71769,-2.23588 -6.5,-0.48969 -6.5,-0.4897 -5.78458,2.18394 -5.78458,2.18394 -5.92731,5.48764 -5.9273,5.48764 -2.78812,5.67758 L 477.5,736.5 l 2e-4,10 2.1e-4,10 2.83277,5.77188 c 4.86316,9.90889 10.98439,15.41683 20.96666,18.86601 l 5.20016,1.79682 6.21249,0.0326 6.21248,0.0326 5.76226,-2.15593 z M 476,548.73783 l -3.5,-1.13385 -7.5,-7.55199 c -4.125,-4.15359 -10.425,-10.77764 -14,-14.72011 -3.575,-3.94246 -10.775,-11.61324 -16,-17.04617 -5.225,-5.43293 -13.775,-14.56803 -19,-20.30023 -5.225,-5.73219 -12.875,-14.05989 -17,-18.50598 -16.16805,-17.42661 -26.4746,-28.8017 -29.17535,-32.20014 L 367,433.72499 v -4.32358 -4.32358 l 4.31529,-5.28892 c 5.94442,-7.28561 23.70376,-25.22288 26.36897,-26.63314 C 398.8856,392.5201 401.63622,392 403.79675,392 h 3.92824 l 3.86776,3.07371 c 2.12727,1.69054 10.62665,9.48453 18.88751,17.31998 37.29402,35.37348 46.80629,44.20521 49.12052,45.60631 l 2.47759,1.5 11.74446,-12 C 515.64516,425.20285 537.87188,402.17664 582,356.1511 c 9.625,-10.03885 23.17591,-24.07688 30.11313,-31.19562 l 12.61314,-12.94316 3.74045,-1.56286 3.74046,-1.56287 3.14641,0.67622 3.14641,0.67622 11.83445,11.63048 C 663.1915,334.50497 665,337.04904 665,342.5 c 0,4.85966 -2.23637,8.85478 -8.95391,15.99551 -3.10674,3.30247 -7.6373,8.47949 -10.06791,11.50449 -2.4306,3.025 -7.18691,8.65 -10.56957,12.5 -3.38267,3.85 -10.59592,12.22912 -16.02945,18.62026 -5.43354,6.39115 -15.27916,17.94142 -21.87916,25.66728 -21.12892,24.73318 -30.92497,36.28047 -33.96998,40.04282 -1.6335,2.0183 -7.7085,9.06964 -13.5,15.66964 -5.79151,6.6 -12.32915,14.25 -14.52808,17 -2.19893,2.75 -6.24893,7.50943 -9,10.5765 -2.75107,3.06708 -8.60194,9.81029 -13.00194,14.98492 -17.99005,21.15722 -20.49186,23.21628 -29.5,24.27925 l -4.5,0.53101 z" id="path390" />
      <path style="fill:#35ab76" d="M 507.5,894.0467 C 505.15887,893.07919 496.01896,883.62157 479.98424,865.57449 473.66791,858.46545 465.8,849.64814 462.5,845.98045 459.2,842.31276 451.55,833.5822 445.5,826.5792 439.45,819.57619 430.09362,808.81851 424.70805,802.67323 373.96254,744.7694 316.14695,672.49178 287,630.5188 c -5.225,-7.52424 -11.30671,-16.23157 -13.51491,-19.34962 -2.2082,-3.11805 -5.99207,-8.81918 -8.40861,-12.66918 -2.41653,-3.85 -6.3897,-10.05812 -8.82926,-13.79583 C 237.57382,556.09432 221.84854,507.69281 216.54403,462.5 l -1.52588,-13 -5.2e-4,-17.5 c -0.002,-68.48256 20.2809,-130.60543 60.65201,-185.76582 36.70361,-50.14936 94.89507,-91.63642 150.83036,-107.5331 19.38872,-5.51023 18.70208,-5.35593 41.5,-9.32619 l 14.5,-2.52518 24,-0.52748 24,-0.52749 15.18115,2.1293 c 39.68544,5.56623 63.9093,12.72408 96.81885,28.60874 20.71849,10.00033 51.32622,30.89118 61.08425,41.69215 L 707,202.00576 v 3.43202 c 0,5.94617 -1.25691,7.54094 -24.63538,31.25734 L 659.5,259.89025 l -2.75657,0.66493 c -1.51612,0.36572 -4.30238,0.37494 -6.1917,0.0205 l -3.43512,-0.64443 -6.80831,-5.32696 C 607.00953,228.5506 569.14734,214.25194 524.65357,210.92723 L 509.5,209.79492 501,210.42494 C 437.24188,215.15067 384.51942,243.30013 344.2642,294.10898 326.27901,316.8093 312.07119,346.10536 304.06423,377 l -4.01714,15.5 -1.16018,10 c -0.6381,5.5 -1.20377,17.875 -1.25704,27.5 l -0.0969,17.5 1.31523,9.5 c 3.35505,24.23367 13.41158,57.05252 22.35056,72.93967 22.64994,40.25548 47.11005,66.26468 83.00783,88.26485 l 13.29337,8.14691 11.13297,4.75335 c 19.02689,8.12374 36.78384,13.04416 59.36703,16.4505 l 9.5,1.43293 12,0.005 c 24.91093,0.0105 45.13894,-3.14912 67.24289,-10.50336 l 13.2429,-4.40606 14.18913,-7.10161 c 7.80403,-3.90588 17.81972,-9.62431 22.25711,-12.70762 C 630.86941,611.1913 637.2,606.8685 640.5,604.66838 l 6,-4.0002 15.08667,-15.08409 15.08667,-15.08409 8.48968,-12 c 22.34866,-31.58939 35.3016,-64.16778 39.95811,-100.5 l 1.21756,-9.5 -0.0258,-17.5 c -0.0142,-9.625 -0.54405,-22.45 -1.17742,-28.5 l -1.15159,-11 -4.38174,-16.03511 -4.38175,-16.03511 -4.71219,-10.96489 c -2.5917,-6.03069 -5.5445,-13.0499 -6.56178,-15.59824 l -1.8496,-4.63335 1.05527,-3.82188 1.05527,-3.82188 22.12237,-22.54477 c 12.16731,-12.39962 23.70816,-23.55496 25.64633,-24.78965 l 3.52396,-2.24487 3.88192,-0.005 3.88193,-0.005 3.18176,3.37366 3.18177,3.37365 7.6154,15.39347 c 11.97403,24.20381 21.53575,52.55207 25.75559,76.35922 1.07237,6.05 2.37402,13.25 2.89255,16 0.51854,2.75 1.49163,11.3 2.16243,19 l 1.21964,14 -0.56815,22 -0.56814,22 -3.14835,18.48045 -3.14835,18.48044 -4.36046,15.05547 C 783.13577,564.04143 765.32319,595.03468 708.11931,670 c -16.37839,21.46377 -52.68239,66.26032 -67.32555,83.07493 -3.68843,4.23539 -10.37102,12.13869 -14.85019,17.56289 -4.47917,5.4242 -11.87662,14.13718 -16.43878,19.36218 -4.56216,5.225 -14.75457,16.8962 -22.64981,25.93599 -7.89524,9.03979 -17.67075,20.28979 -21.72335,25 -4.0526,4.71021 -9.6776,11.05296 -12.5,14.095 -2.8224,3.04205 -8.05663,8.85899 -11.63163,12.92655 -24.22758,27.56558 -26.20364,29.10449 -33.5,26.08916 z m 20.69218,-113.89459 6.69218,-3.19909 3.39041,-3.96093 c 1.86473,-2.17851 4.70325,-6.33044 6.30782,-9.22651 L 547.5,758.5 v -11 -11 l -3,-6 -3,-6 -5,-5.12265 -5,-5.12264 -6,-2.31493 -6,-2.31492 -8,-0.0624 -8,-0.0624 -5.71662,2.80722 -5.71661,2.80721 -5.07945,5.18726 -5.07945,5.18727 -2.70393,5.50552 L 476.5,736.5 v 10.01538 10.01538 l 3.27411,6.65631 3.27412,6.65632 5.36297,4.90146 5.36298,4.90146 6.36291,2.19358 6.36291,2.19357 7.5,-0.34113 7.5,-0.34114 z M 476,548.73783 l -3.5,-1.13385 -7.5,-7.55199 c -4.125,-4.15359 -10.425,-10.77764 -14,-14.72011 -3.575,-3.94246 -10.775,-11.61324 -16,-17.04617 -5.225,-5.43293 -13.775,-14.56803 -19,-20.30023 -5.225,-5.73219 -12.875,-14.05989 -17,-18.50598 -16.16805,-17.42661 -26.4746,-28.8017 -29.17535,-32.20014 L 367,433.72499 v -4.32358 -4.32358 l 4.31529,-5.28892 c 5.94442,-7.28561 23.70376,-25.22288 26.36897,-26.63314 C 398.8856,392.5201 401.63622,392 403.79675,392 h 3.92824 l 3.86776,3.07371 c 2.12727,1.69054 10.62665,9.48453 18.88751,17.31998 37.29402,35.37348 46.80629,44.20521 49.12052,45.60631 l 2.47759,1.5 11.74446,-12 C 515.64516,425.20285 537.87188,402.17664 582,356.1511 c 9.625,-10.03885 23.17591,-24.07688 30.11313,-31.19562 l 12.61314,-12.94316 3.74045,-1.56286 3.74046,-1.56287 3.14641,0.67622 3.14641,0.67622 11.83445,11.63048 C 663.1915,334.50497 665,337.04904 665,342.5 c 0,4.85966 -2.23637,8.85478 -8.95391,15.99551 -3.10674,3.30247 -7.6373,8.47949 -10.06791,11.50449 -2.4306,3.025 -7.18691,8.65 -10.56957,12.5 -3.38267,3.85 -10.59592,12.22912 -16.02945,18.62026 -5.43354,6.39115 -15.27916,17.94142 -21.87916,25.66728 -21.12892,24.73318 -30.92497,36.28047 -33.96998,40.04282 -1.6335,2.0183 -7.7085,9.06964 -13.5,15.66964 -5.79151,6.6 -12.32915,14.25 -14.52808,17 -2.19893,2.75 -6.24893,7.50943 -9,10.5765 -2.75107,3.06708 -8.60194,9.81029 -13.00194,14.98492 -17.99005,21.15722 -20.49186,23.21628 -29.5,24.27925 l -4.5,0.53101 z" id="path388" />
      <path style="fill:#2e446e" d="M 507.5,894.0467 C 505.15887,893.07919 496.01896,883.62157 479.98424,865.57449 473.66791,858.46545 465.8,849.64814 462.5,845.98045 459.2,842.31276 451.55,833.5822 445.5,826.5792 439.45,819.57619 430.09362,808.81851 424.70805,802.67323 373.96254,744.7694 316.14695,672.49178 287,630.5188 c -5.225,-7.52424 -11.30671,-16.23157 -13.51491,-19.34962 -2.2082,-3.11805 -5.99207,-8.81918 -8.40861,-12.66918 -2.41653,-3.85 -6.3897,-10.05812 -8.82926,-13.79583 C 237.57382,556.09432 221.84854,507.69281 216.54403,462.5 l -1.52588,-13 -5.2e-4,-17.5 c -0.002,-68.48256 20.2809,-130.60543 60.65201,-185.76582 36.70361,-50.14936 94.89507,-91.63642 150.83036,-107.5331 19.38872,-5.51023 18.70208,-5.35593 41.5,-9.32619 l 14.5,-2.52518 24,-0.52748 24,-0.52749 15.18115,2.1293 c 39.68544,5.56623 63.9093,12.72408 96.81885,28.60874 20.71849,10.00033 51.32622,30.89118 61.08425,41.69215 L 707,202.00576 v 3.43202 c 0,5.94617 -1.25691,7.54094 -24.63538,31.25734 L 659.5,259.89025 l -2.75657,0.66493 c -1.51612,0.36572 -4.30238,0.37494 -6.1917,0.0205 l -3.43512,-0.64443 -6.80831,-5.32696 C 607.00953,228.5506 569.14734,214.25194 524.65357,210.92723 L 509.5,209.79492 501,210.42494 C 437.24188,215.15067 384.51942,243.30013 344.2642,294.10898 326.27901,316.8093 312.07119,346.10536 304.06423,377 l -4.01714,15.5 -1.16018,10 c -0.6381,5.5 -1.20377,17.875 -1.25704,27.5 l -0.0969,17.5 1.31523,9.5 c 3.35505,24.23367 13.41158,57.05252 22.35056,72.93967 22.64994,40.25548 47.11005,66.26468 83.00783,88.26485 l 13.29337,8.14691 11.13297,4.75335 c 19.02689,8.12374 36.78384,13.04416 59.36703,16.4505 l 9.5,1.43293 12,0.005 c 24.91093,0.0105 45.13894,-3.14912 67.24289,-10.50336 l 13.2429,-4.40606 14.18913,-7.10161 c 7.80403,-3.90588 17.81972,-9.62431 22.25711,-12.70762 C 630.86941,611.1913 637.2,606.8685 640.5,604.66838 l 6,-4.0002 15.08667,-15.08409 15.08667,-15.08409 8.48968,-12 c 22.34866,-31.58939 35.3016,-64.16778 39.95811,-100.5 l 1.21756,-9.5 -0.0258,-17.5 c -0.0142,-9.625 -0.54405,-22.45 -1.17742,-28.5 l -1.15159,-11 -4.38174,-16.03511 -4.38175,-16.03511 -4.71219,-10.96489 c -2.5917,-6.03069 -5.5445,-13.0499 -6.56178,-15.59824 l -1.8496,-4.63335 1.05527,-3.82188 1.05527,-3.82188 22.12237,-22.54477 c 12.16731,-12.39962 23.70816,-23.55496 25.64633,-24.78965 l 3.52396,-2.24487 3.88192,-0.005 3.88193,-0.005 3.18176,3.37366 3.18177,3.37365 7.6154,15.39347 c 11.97403,24.20381 21.53575,52.55207 25.75559,76.35922 1.07237,6.05 2.37402,13.25 2.89255,16 0.51854,2.75 1.49163,11.3 2.16243,19 l 1.21964,14 -0.56815,22 -0.56814,22 -3.14835,18.48045 -3.14835,18.48044 -4.36046,15.05547 C 783.13577,564.04143 765.32319,595.03468 708.11931,670 c -16.37839,21.46377 -52.68239,66.26032 -67.32555,83.07493 -3.68843,4.23539 -10.37102,12.13869 -14.85019,17.56289 -4.47917,5.4242 -11.87662,14.13718 -16.43878,19.36218 -4.56216,5.225 -14.75457,16.8962 -22.64981,25.93599 -7.89524,9.03979 -17.67075,20.28979 -21.72335,25 -4.0526,4.71021 -9.6776,11.05296 -12.5,14.095 -2.8224,3.04205 -8.05663,8.85899 -11.63163,12.92655 -24.22758,27.56558 -26.20364,29.10449 -33.5,26.08916 z m 20.69218,-113.89459 6.69218,-3.19909 3.39041,-3.96093 c 1.86473,-2.17851 4.70325,-6.33044 6.30782,-9.22651 L 547.5,758.5 v -11 -11 l -3,-6 -3,-6 -5,-5.12265 -5,-5.12264 -6,-2.31493 -6,-2.31492 -8,-0.0624 -8,-0.0624 -5.71662,2.80722 -5.71661,2.80721 -5.07945,5.18726 -5.07945,5.18727 -2.70393,5.50552 L 476.5,736.5 v 10.01538 10.01538 l 3.27411,6.65631 3.27412,6.65632 5.36297,4.90146 5.36298,4.90146 6.36291,2.19358 6.36291,2.19357 7.5,-0.34113 7.5,-0.34114 z" id="path386" />
    </g>
  </g>
</svg>