<?xml version="1.0" encoding="UTF-8" standalone="no"?>
<!-- Created with Inkscape (http://www.inkscape.org/) -->

<svg
   version="1.1"
   id="svg290"
   width="1026"
   height="292"
   viewBox="249.77 247.869 1025.99 291.403"
   sodipodi:docname="primary_logo5.svg"
   inkscape:version="1.2.2 (b0a8486541, 2022-12-01)"
   xmlns:inkscape="http://www.inkscape.org/namespaces/inkscape"
   xmlns:sodipodi="http://sodipodi.sourceforge.net/DTD/sodipodi-0.dtd"
   xmlns="http://www.w3.org/2000/svg"
   xmlns:svg="http://www.w3.org/2000/svg">
  <defs
     id="defs294" />
  <sodipodi:namedview
     id="namedview292"
     pagecolor="#ffffff"
     bordercolor="#000000"
     borderopacity="0.25"
     inkscape:showpageshadow="2"
     inkscape:pageopacity="0.0"
     inkscape:pagecheckerboard="0"
     inkscape:deskcolor="#d1d1d1"
     showgrid="false"
     inkscape:zoom="0.84765625"
     inkscape:cx="768"
     inkscape:cy="513.76959"
     inkscape:window-width="1920"
     inkscape:window-height="1043"
     inkscape:window-x="0"
     inkscape:window-y="0"
     inkscape:window-maximized="1"
     inkscape:current-layer="g296" />
  <g
     inkscape:groupmode="layer"
     inkscape:label="Image"
     id="g296">
    <g
       id="g337"
       transform="translate(-3.2006044,-64.126472)">
      <path
         style="fill:#b1b7c4"
         d="m 362.30572,601.54915 c -3.09401,-1.88683 -36.74411,-37.98136 -57.9412,-62.1502 -33.96621,-38.72816 -47.79269,-66.0552 -50.53344,-99.87572 l -0.86097,-10.62428 0.91785,-10.58049 c 0.50481,-5.81926 2.044,-15.04426 3.42041,-20.5 l 2.50256,-9.91951 4.86409,-10 c 14.30095,-29.40112 40.88539,-51.71767 72.65724,-60.99282 l 8.9945,-2.62576 11.25155,-1.14246 11.25155,-1.14246 12.74845,1.1951 c 24.84938,2.32949 45.00086,10.41 62.71225,25.14689 l 6.5362,5.43849 v 1.65097 1.65096 l -12.04041,11.91054 c -6.62223,6.5508 -12.46583,12.05841 -12.98579,12.23914 -0.51996,0.18072 -2.86427,-1.22161 -5.20959,-3.1163 -8.23425,-6.65214 -15.48122,-10.78149 -24.33141,-13.86414 l -8.9328,-3.11141 -14.14876,-0.49128 -14.14876,-0.49128 -7.66353,1.70497 -7.66353,1.70498 -8.68771,4.37707 c -19.79805,9.97474 -34.65259,28.04323 -40.32252,49.04677 l -2.13585,7.91202 -0.0417,11.5 -0.0417,11.5 1.8133,6.96043 c 7.5924,29.14384 29.38807,49.88288 58.8116,55.96047 l 7.6449,1.5791 h 8.58432 8.58432 l 7.70784,-1.58412 c 15.81918,-3.25116 29.54413,-10.68321 41.13607,-22.27514 l 6.85655,-6.85655 4.51906,-7.71991 4.51905,-7.71991 2.32653,-8.17219 2.32652,-8.17218 -0.0282,-13.5 -0.0282,-13.5 -3.25513,-9 c -1.79032,-4.95 -3.4988,-9.94242 -3.79661,-11.09427 l -0.54148,-2.09426 12.09713,-11.40574 c 6.65343,-6.27315 13.26459,-11.84666 14.69148,-12.38558 l 2.59434,-0.97985 2.0056,2.47681 c 4.39239,5.42437 9.83562,18.00701 13.83576,31.98289 l 2.14663,7.5 0.52677,16.08806 0.52678,16.08807 -1.62972,9.56091 c -6.00403,35.22325 -20.34162,57.06664 -81.20095,123.71002 -8.75612,9.58829 -17.62073,19.34403 -19.69915,21.67942 -2.07841,2.3354 -5.28153,5.17482 -7.11803,6.30985 l -3.3391,2.06367 -4.88196,-0.004 -4.88197,-0.004 -3.02104,-1.84232 z m 12.88526,-45.52902 c 3.92895,-1.64162 7.24974,-5.58705 8.14914,-9.682 l 0.65164,-2.96689 -2.06126,-4.25799 -2.06126,-4.25799 -2.92553,-1.72815 -2.92553,-1.72816 h -4.6104 -4.61039 l -3.54702,3.2506 -3.54702,3.2506 -0.54123,4.03516 -0.54123,4.03517 1.5653,3.74627 1.56529,3.74628 4.28764,1.946 c 5.13409,2.33016 6.81685,2.42238 11.15186,0.6111 z m 321.23754,-54.74712 c -7.85252,-1.11721 -14.08216,-4.26996 -19.87823,-10.06015 l -4.77648,-4.77162 -2.05029,-4.77114 -2.0503,-4.77115 -0.53845,-8.5 -0.53846,-8.5 2.01067,-5.66785 c 1.10586,-3.11733 3.44169,-7.74779 5.19073,-10.28992 l 3.18006,-4.62207 5.17449,-3.38897 c 6.78581,-4.44429 12.32451,-5.86568 22.6745,-5.81891 l 8.5,0.0384 6,2.28423 6,2.28422 5.6491,5.76279 5.64911,5.7628 2.30977,5.82764 2.30977,5.82763 0.0396,8.52421 0.0396,8.52421 -3.27901,6.66061 -3.27901,6.66061 -5.01779,4.51143 -5.0178,4.51143 -5.20163,1.91384 c -6.44748,2.37223 -15.35522,3.16958 -23.09987,2.06772 z m 15.89484,-18.79091 c 4.1179,-2.32414 7.26856,-7.33435 8.10038,-12.88127 l 0.69755,-4.6516 -1.1811,-4.52514 c -1.32965,-5.09432 -3.52772,-8.4987 -7.31098,-11.32331 l -2.57398,-1.92175 -4.43807,-0.50024 -4.43807,-0.50023 -4.07539,2.07911 -4.0754,2.07911 -2.22094,3.59355 -2.22093,3.59356 -0.50513,6.29286 -0.50514,6.29286 1.19731,3.62787 c 1.42373,4.31394 5.79401,8.6956 10.30033,10.32714 l 3.25296,1.17775 3.5,-0.53449 c 1.925,-0.29397 4.84847,-1.29557 6.4966,-2.22578 z m 289.40414,18.84311 -6.59929,-0.73182 -4.40072,-2.24151 c -2.4204,-1.23282 -5.86323,-3.35498 -7.65073,-4.7159 l -3.25,-2.47441 v -2.02832 c 0,-2.40128 6.55646,-10.7343 8.4458,-10.7343 0.72154,0 3.92744,1.575 7.12422,3.5 l 5.81232,3.5 h 5.5864 5.5863 l 2.2225,-1.5567 c 5.3362,-3.73766 1.9536,-7.22153 -10.7775,-11.09995 -11.26708,-3.43239 -15.32928,-5.59739 -18.63537,-9.93189 l -2.75119,-3.60701 -0.4243,-5.86578 c -0.23336,-3.22618 -0.13989,-6.99893 0.20771,-8.3839 0.80813,-3.21983 5.76435,-8.87328 10.16128,-11.59073 l 3.41831,-2.11263 6.26176,-0.895 6.2618,-0.89499 6.5,1.00388 c 7.0701,1.09194 15.6246,4.75742 18.4886,7.92205 l 1.8059,1.99555 -3.6575,5.50854 c -2.0116,3.0297 -4.2153,5.50285 -4.8972,5.49588 -0.6819,-0.007 -3.8907,-1.35696 -7.1307,-3 l -5.8909,-2.98732 h -4.1366 -4.1366 l -2.2225,1.55669 c -2.6482,1.85485 -2.7849,3.16445 -0.5841,5.59627 l 1.6385,1.81045 8.6115,2.6108 c 4.7364,1.43593 10.7828,3.78402 13.4365,5.21796 l 4.8248,2.60717 2.4252,4.13818 2.4251,4.13819 v 5.84641 5.84642 l -2.1327,4.40559 -2.1327,4.40558 -3.8858,2.81483 c -5.8563,4.24228 -15.5505,6.08476 -25.9481,4.93172 z m 237.9699,0.10615 c -17.4856,-3.14295 -28.8706,-17.14065 -28.8706,-35.49598 0,-8.17763 1.9593,-15.23955 5.9563,-21.46835 l 3.3066,-5.1529 4.3576,-2.99808 c 2.3966,-1.64894 6.275,-3.6934 8.6185,-4.54324 l 4.261,-1.54515 8.7005,-0.078 8.7004,-0.078 6.7996,3.41361 6.7995,3.41363 3.6896,4.93728 3.6897,4.9373 1.6274,6.0627 1.6273,6.06272 -0.317,6.5 -0.317,6.5 -22.9177,0.5 -22.9178,0.5 -0.355,1.06831 c -0.6317,1.90077 4.1331,7.88283 7.7104,9.68013 l 3.4801,1.74844 5,-0.0166 5,-0.0166 5.4098,-2.98189 c 2.9753,-1.64003 5.7979,-2.98188 6.2723,-2.98188 1.4269,0 9.8179,8.15554 9.8179,9.54237 0,0.70821 -2.0608,3.10162 -4.5795,5.31868 l -4.5795,4.03101 -4.6705,1.51194 c -6.0553,1.96023 -15.4556,2.67889 -21.2999,1.62841 z m 19.5261,-43.86531 c 0.8599,-1.3913 -2.7182,-7.39401 -5.72,-9.59602 l -2.8234,-2.07108 h -4.8533 -4.8533 l -2.8234,2.07108 c -3.0018,2.20201 -6.5799,8.20472 -5.72,9.59602 0.2831,0.4581 6.3116,0.8329 13.3967,0.8329 7.0851,0 13.1136,-0.3748 13.3967,-0.8329 z m -483.3896,42.28631 c -1.92107,-0.8586 -4.49683,-2.50427 -5.7239,-3.65705 l -2.23104,-2.09595 -0.5261,1.64979 c -0.28936,0.90739 -0.74374,2.34243 -1.00975,3.18897 l -0.48364,1.53917 -8.76636,-0.28917 -8.76635,-0.28917 -0.26011,-46.43475 -0.26011,-46.43472 1.26011,-0.79996 c 1.76485,-1.12038 15.94064,-1.00194 17.76011,0.1484 l 1.5,0.94833 v 14.03537 c 0,7.71943 0.35057,14.0625 0.77903,14.09568 0.42847,0.0332 3.23836,-1.14291 6.24419,-2.61351 l 5.46516,-2.67386 7.2712,-0.0469 7.2712,-0.0469 6.28509,2.82058 6.28509,2.82058 4.39577,4.88915 4.39577,4.88915 2.24145,5.70163 2.24145,5.70163 0.0623,9.5 0.0623,9.5 -3.12193,6.58861 c -3.68232,7.77126 -8.32681,12.72497 -15.01977,16.01977 l -4.8583,2.39171 -9.5,0.25725 -9.5,0.25725 z m 17.04091,-17.70681 c 1.8391,-1.23937 4.26815,-3.82687 5.39788,-5.75 l 2.05407,-3.4966 -0.0535,-6.52968 -0.0535,-6.52968 -2.44646,-4.38174 c -1.34555,-2.40995 -3.71696,-5.3216 -5.26979,-6.47033 l -2.82333,-2.08857 h -5.35334 -5.35334 l -2.82333,2.10453 c -1.55283,1.15749 -3.72333,3.63249 -4.82333,5.5 l -2,3.39547 v 8 8 l 2.03402,3.5 2.03402,3.5 3.46598,1.74845 3.46598,1.74844 4.60212,0.002 4.60211,0.002 3.34382,-2.2534 z m 139.95195,18.31827 c -8.79408,-2.68474 -16.42194,-9.12549 -20.80226,-17.56487 l -2.59517,-5 -0.3928,-10.5 -0.3928,-10.5 2.12486,-5.6471 2.12486,-5.6471 4.17629,-4.74451 4.17628,-4.74451 6.04037,-2.85759 6.04037,-2.85761 9,0.005 c 10.84833,0.006 14.85252,1.0164 21.18162,5.34611 l 4.81838,3.29624 3.97781,7.7593 3.9778,7.75929 0.0222,8.66635 0.0222,8.66635 -23.25,0.26843 -23.25,0.26843 v 1.94677 c 0,1.07073 1.37249,3.50996 3.04998,5.42052 l 3.04999,3.47374 3.56208,1.17559 3.56208,1.17559 5.32774,-0.44181 5.32775,-0.44182 4.03875,-2.67272 c 2.22131,-1.47 4.6109,-2.66739 5.31019,-2.66087 1.41742,0.0132 10.77144,8.68841 10.77144,9.98976 0,1.8177 -9.00811,8.60589 -13.6086,10.25495 l -4.8914,1.75333 -10,-0.0909 c -5.5,-0.05 -11.125,-0.43435 -12.5,-0.85412 z m 24,-43.09699 c 0,-5.13768 -5.08638,-10.33065 -11.25142,-11.48722 l -3.54381,-0.66483 -4.4244,1.95712 -4.4244,1.95713 -1.67799,3.53609 c -0.92289,1.94484 -1.67798,4.03057 -1.67798,4.63495 v 1.09888 h 13.5 13.5 z m 103.30204,41.98272 -5.198,-2.05158 -4.838,-4.34981 -4.8381,-4.3498 -2.9639,-5.84971 -2.964,-5.8497 v -11 -11 l 2.4505,-5 c 1.3478,-2.75 4.7367,-7.29329 7.531,-10.09621 l 5.0805,-5.09621 5.8595,-2.19233 5.8595,-2.19232 8.1095,-0.11203 8.1095,-0.11202 5.6836,1.65918 5.6835,1.65918 4.2876,3.27024 c 5.995,4.57251 10.1525,10.38027 12.2857,17.1622 l 1.823,5.79595 -0.4981,8.73662 -0.4982,8.73661 -3.3134,6.21658 -3.3134,6.21659 -3.934,3.36738 c -2.1637,1.85207 -6.0203,4.37974 -8.5702,5.61705 l -4.6361,2.24967 -11,0.30802 -11,0.30803 z m 22.4977,-16.35559 c 10.2578,-5.33714 12.3799,-21.62615 4.053,-31.11 l -3.0382,-3.4603 -3.8108,-1.14174 -3.8108,-1.14175 -3.6178,0.67872 -3.6179,0.67871 -3.4137,2.9973 -3.4137,2.9973 -1.6887,5.08415 -1.6887,5.08415 0.5881,4.96574 c 0.7248,6.11988 3.2274,10.56489 7.6114,13.51931 l 3.3439,2.2534 h 4.9017 4.9018 z m -545.10029,16.7711 c -0.3847,-0.3847 -0.69945,-21.29789 -0.69945,-46.47377 v -45.77432 l 1.23848,-0.76541 c 0.68116,-0.42098 12.44417,-0.64264 26.14003,-0.49258 l 24.90156,0.27283 5.51682,2.0641 5.51681,2.06411 4.11701,4.11946 c 5.0635,5.06653 8.34079,11.82398 9.17441,18.91672 l 0.63182,5.37587 -1.68096,5.7823 c -3.06074,10.52859 -9.57479,17.73348 -19.37758,21.43266 l -3.6784,1.38808 -15,0.61192 -15,0.61192 -0.5,15.5 -0.5,15.5 -10.05055,0.28278 c -5.52781,0.15553 -10.36531,-0.032 -10.75,-0.41667 z m 46.26467,-50.61611 4.3879,-2.25 1.8847,-3.5 1.8847,-3.5 -0.43625,-4.23557 c -0.54015,-5.2444 -2.72615,-8.69653 -6.94459,-10.96688 l -3.24058,-1.74407 -11,-0.0267 -11,-0.0267 -0.28135,12.9471 c -0.15474,7.12093 -0.0564,13.53342 0.21862,14.25 l 0.49996,1.3029 h 9.8195 9.81949 l 4.3879,-2.25 z m 35.5045,50.02881 c -0.27311,-0.71172 -0.37778,-16.1406 -0.23259,-34.28642 l 0.26397,-32.99239 h 9.5 9.5 l 0.31336,3.25 c 0.345,3.57823 1.26838,4.06137 3.23447,1.69236 0.711,-0.85671 3.1286,-2.63112 5.37245,-3.94316 l 4.07972,-2.38551 5.06965,-0.22734 c 2.7883,-0.12502 5.6008,0.10095 6.25,0.50217 l 1.18035,0.7295 v 8.334 8.334 l -1.58179,0.60699 c -0.86998,0.33385 -3.2029,0.60699 -5.18427,0.60699 h -3.60249 l -4.43749,2.14815 -4.43749,2.14814 -2.11886,4.60186 -2.11886,4.60185 -0.50937,18.5 -0.50938,18.5 -9.76741,0.28642 -9.76741,0.28642 z m 211.19805,0.55452 c -0.36667,-0.36666 -0.66667,-21.30617 -0.66667,-46.53222 v -45.86557 l 2.25,-0.89014 2.25,-0.89014 23.46165,0.51558 23.46165,0.5156 5.03835,1.88647 c 10.04469,3.76096 16.63959,11.69795 18.61959,22.40871 l 1.06961,5.78609 -0.66055,4.80284 -0.66056,4.80284 -3.1712,5.3133 -3.1712,5.31331 -4.99367,3.32993 c -2.74652,1.83146 -5.1256,3.68975 -5.28684,4.12953 -0.16125,0.43977 4.00125,7.90942 9.25,16.59924 5.24874,8.68981 9.54317,16.61902 9.54317,17.62048 v 1.82082 h -10.97 -10.96999 l -8.67219,-14.75 c -4.7697,-8.1125 -9.35295,-15.5375 -10.18499,-16.5 l -1.51281,-1.75 h -6.34501 -6.34501 v 14.91821 c 0,8.20502 -0.27314,15.63002 -0.60699,16.5 l -0.60699,1.58179 h -9.72634 c -5.34949,0 -10.02635,-0.3 -10.39301,-0.66667 z m 45.69755,-50.71216 c 1.81499,-0.75834 4.27553,-2.61903 5.46788,-4.13486 l 2.1679,-2.75603 v -4.91481 -4.9148 l -1.56632,-3.02891 -1.56631,-3.02894 -4.18369,-1.89945 -4.18368,-1.89946 -10.25,-0.022 -10.25,-0.0219 v 14 14 h 10.53212 10.53212 z m 241.33632,50.74596 c -0.3853,-0.38527 -0.7005,-21.29891 -0.7005,-46.47479 v -45.77432 l 0.9587,-0.59249 c 0.5272,-0.32587 4.3967,-0.79445 8.5988,-1.04131 l 7.6401,-0.44883 1.9112,1.02282 1.9111,1.02282 -0.2599,46.20948 -0.26,46.20949 -9.5495,0.28379 c -5.2523,0.15609 -9.8648,-0.0314 -10.25,-0.41666 z m 48.3097,-1.61713 c -0.5208,-1.2375 -6.1607,-16.14882 -12.5332,-33.13627 l -11.5864,-30.88627 0.5368,-1.39891 0.5368,-1.39891 10.1983,0.28518 10.1983,0.28518 7.0265,21.39551 7.0266,21.3955 0.8779,-1.3955 c 0.4829,-0.76753 3.8772,-10.39551 7.5431,-21.39551 l 6.6651,-20 9.4104,-0.28965 9.4103,-0.28965 0.9793,0.97934 0.9794,0.97934 -12.288,32.81031 c -6.7585,18.04567 -12.7838,33.14092 -13.3897,33.545 -0.6059,0.40408 -5.4988,0.74158 -10.8731,0.75 l -9.7715,0.0153 -0.9469,-2.25 z M 350.32676,471.51008 c -4.57562,-2.86953 -36.16576,-35.2893 -36.97696,-37.94808 -0.39215,-1.28532 -0.44181,-3.78251 -0.11036,-5.54931 l 0.60265,-3.21238 4.35891,-4.27794 4.35891,-4.27795 3.97068,-0.53257 3.97068,-0.53259 2.91274,1.53866 c 1.60201,0.84625 7.17886,5.84569 12.393,11.10984 5.21414,5.26414 10.08591,9.57119 10.82615,9.57119 0.74025,0 13.02364,-11.56388 27.29643,-25.69751 14.27278,-14.13363 27.17601,-26.50566 28.67384,-27.49341 l 2.72333,-1.7959 3.29966,-0.007 c 6.48292,-0.0129 13.53204,5.91413 14.74905,12.40137 l 0.62829,3.34908 -1.52142,2.87149 c -1.39423,2.63141 -14.43304,15.76441 -56.72831,57.13807 l -15.57273,15.23382 -3.42727,-0.004 -3.42727,-0.004 -3,-1.88139 z"
         id="path351" />
      <path
         style="fill:#99a3b4"
         d="m 363.25252,601.43281 c -2.53563,-1.02608 -40.58769,-42.22028 -63.58932,-68.84019 -24.32426,-28.15061 -36.91926,-50.99896 -42.83972,-77.71478 l -2.21141,-9.97889 -0.0471,-15.5 -0.0471,-15.5 2.59755,-11.24068 c 3.39057,-14.67247 8.19176,-26.25273 15.3361,-36.99001 18.85539,-28.33788 49.38358,-47.37407 82.37524,-51.36597 l 9.5,-1.14947 12.17248,0.59835 c 18.83526,0.92584 31.28049,4.07133 46.62271,11.7837 11.51288,5.7874 26.70481,17.29158 26.70481,20.22237 0,1.47158 -23.14036,24.64171 -24.61003,24.64171 -0.594,0 -1.89752,-0.90337 -2.89672,-2.00747 -0.9992,-1.1041 -5.44277,-4.33346 -9.87459,-7.17635 l -8.05786,-5.1689 -9.0304,-2.98176 -9.0304,-2.98176 -13.18862,-0.45592 -13.18863,-0.45591 -7.81137,1.69132 -7.81138,1.69132 -9,4.36086 c -24.44733,11.84574 -39.90373,33.71098 -43.55428,61.61365 l -1.24183,9.49189 1.65337,9.78618 1.65336,9.7862 3.03492,7.57935 c 4.20985,10.51359 10.69467,19.85324 19.48413,28.06162 l 7.47098,6.97707 9.24968,4.51367 c 5.08732,2.48252 12.39967,5.33023 16.24967,6.32826 l 7,1.81459 13.5,-0.0228 13.5,-0.0228 6.5,-1.82943 c 3.575,-1.00619 10.55,-3.77336 15.5,-6.14928 l 9,-4.31985 6.29647,-5.14485 c 8.46433,-6.91621 15.9594,-16.21282 20.54056,-25.47778 l 3.78265,-7.65003 1.91852,-8.67552 1.91852,-8.67552 0.0216,-7.29216 c 0.0261,-8.78515 -2.23363,-20.32649 -5.65124,-28.86354 -1.38308,-3.45487 -2.35999,-6.68678 -2.17091,-7.18203 0.18909,-0.49525 5.86878,-6.16402 12.62154,-12.59728 l 12.27775,-11.69682 2.17339,0.31592 2.17338,0.31591 4.26559,8 c 8.61907,16.16488 12.53696,32.87766 12.5417,53.5 l 0.003,13.5 -2.11758,10.2123 c -4.72806,22.80161 -13.972,41.08716 -33.25785,65.7877 -13.73998,17.59763 -65.78949,75.46358 -72.63333,80.75 l -3.56018,2.75 -5.07186,-0.0634 c -2.78952,-0.0349 -6.00527,-0.4411 -7.1461,-0.90275 z m 11.90305,-44.39789 c 4.057,-1.69512 8.2856,-6.60391 9.17427,-10.64998 l 0.67251,-3.06193 -2.3378,-4.64358 -2.33779,-4.64359 -3.5,-1.87999 -3.5,-1.87998 -4.78263,0.41788 -4.78264,0.41788 -2.56238,2.39365 c -1.40931,1.31651 -3.24405,3.7044 -4.0772,5.30641 l -1.51483,2.91274 0.51979,3.87536 c 0.72062,5.37258 3.13549,8.63969 8.02785,10.86098 5.00727,2.27347 6.71988,2.36285 11.00085,0.57415 z m 320.40269,-56.61744 c -10.57976,-1.90368 -20.82457,-9.60499 -25.03852,-18.82217 l -2.14711,-4.69636 -0.0229,-10.5 -0.0229,-10.5 2.59433,-5.5 c 4.85864,-10.30039 13.68037,-16.91512 25.47101,-19.09874 l 5.93466,-1.09908 5.88647,0.664 c 3.23756,0.36521 8.41121,1.60864 11.497,2.76318 l 5.61051,2.09916 5.16365,5.28892 5.16364,5.28893 2.23517,5.79682 c 1.22935,3.18824 2.45132,8.42134 2.71551,11.62911 l 0.48034,5.83229 -1.6865,6.23042 -1.68649,6.23041 -3.71698,4.93729 c -8.349,11.09002 -23.02375,16.22811 -38.43082,13.45582 z m 17.34682,-17.29233 c 4.55668,-3.07074 7.68481,-7.96386 8.47963,-13.26406 l 0.65852,-4.39133 -1.25367,-5.2854 -1.25366,-5.28541 -4.1277,-4.15471 -4.12769,-4.1547 -4.61418,-0.69194 -4.61418,-0.69194 -4.45484,1.97059 -4.45484,1.97059 -2.01905,2.87605 c -1.11048,1.58183 -2.58215,4.61125 -3.27038,6.73203 l -1.25133,3.85597 0.41979,5.8036 0.4198,5.8036 2.59196,3.91672 2.59197,3.91673 3.35077,1.65094 3.35076,1.65093 5.10212,0.0228 5.10211,0.0228 3.37409,-2.2738 z m 69.92168,17.19226 c -6.06181,-0.66655 -10.48965,-2.59207 -13.42874,-5.83973 l -1.92401,-2.12601 -0.80831,1.27364 c -0.44457,0.70049 -0.81521,2.28613 -0.82363,3.52364 l -0.0153,2.25 h -8.50999 -8.50998 l 0.25998,-46.25 0.25999,-46.25 7.97964,-0.2962 7.97963,-0.2962 1.27037,1.73732 1.27036,1.73733 v 14.30887 14.30888 h 0.87756 c 0.48265,0 1.46505,-0.7079 2.1831,-1.57309 0.71805,-0.86521 3.05893,-2.46761 5.20197,-3.56089 l 3.89642,-1.98782 6.67047,-0.18909 6.67048,-0.18911 4.5988,1.33763 c 13.41015,3.90053 22.85516,18.05693 22.88933,34.30702 l 0.0119,5.64467 -1.99491,6.45877 -1.99491,6.45876 -4.10399,4.66238 c -2.25719,2.56431 -6.09793,5.83091 -8.53496,7.2591 l -4.43098,2.59672 -5.72013,0.64909 c -3.14606,0.35699 -8.19512,0.37694 -11.22012,0.0443 z m 7.6849,-15.98209 c 1.54831,-0.58498 4.06318,-2.25431 5.58861,-3.7096 l 2.77351,-2.646 1.4986,-5.04038 1.49861,-5.04039 -0.65352,-4.5 c -1.29213,-8.89725 -5.87365,-14.92087 -12.93022,-17.00017 l -4.03951,-1.19029 -4.11914,1.10918 -4.11915,1.10916 -3.00555,3.42314 -3.00554,3.42313 -1.26935,5.67204 -1.26935,5.67203 1.17989,5.64089 c 0.64893,3.10248 2.00102,6.76589 3.00463,8.14089 3.79322,5.19691 12.29245,7.4206 18.86748,4.93637 z m 146.44807,15.98249 c -14.14203,-2.46662 -24.43971,-12.93642 -27.0676,-27.52002 l -1.09939,-6.10115 0.95867,-6.76947 0.95868,-6.76947 2.61928,-5.35363 2.61929,-5.35362 4.04426,-3.46174 c 5.24244,-4.48734 9.56674,-6.4884 16.43824,-7.60676 l 5.56906,-0.90639 6.72267,0.84413 6.72266,0.84413 4.06882,2.07575 c 2.23785,1.14167 5.92591,4.18554 8.1957,6.76414 l 4.12687,4.68838 1.99491,6.45876 1.99491,6.45876 v 6.39467 6.39466 h -23.03138 -23.03139 l -0.5384,1.40305 c -0.29612,0.77167 0.37795,3.19925 1.49794,5.3946 l 2.03634,3.99157 4.34917,2.10539 4.34917,2.1054 h 4.03505 c 4.75165,0 9.75462,-1.55456 13.58281,-4.22056 l 2.74932,-1.91465 1.80194,0.57191 c 0.99108,0.31456 3.57888,2.40838 5.75069,4.65294 l 3.94874,4.08101 -4.5,3.91342 -4.5,3.91341 -4.5,1.44432 c -6.08488,1.95301 -16.3403,2.61544 -22.86703,1.47706 z m 20.49443,-42.39028 c 0.31055,-0.80927 -0.26607,-3.17177 -1.28138,-5.25 l -1.84602,-3.77858 -4.65922,-2.31235 -4.65923,-2.31234 -3.47282,0.6515 c -1.91006,0.35833 -4.79942,1.45826 -6.42082,2.44428 l -2.94798,1.79278 -1.7501,3.68805 c -0.96255,2.02843 -1.50316,4.33156 -1.20135,5.11806 l 0.54875,1.43002 h 13.56277 13.56277 z m 42.60364,42.40989 c -7.08635,-1.2474 -11.15956,-3.05881 -15.55377,-6.91698 -4.48822,-3.94071 -4.5448,-5.05925 -0.50991,-10.08014 3.82858,-4.76414 4.32256,-4.79747 10.86142,-0.73269 l 5.16166,3.20867 6.1548,0.38808 6.1548,0.38807 2.75,-2.16932 c 5.788,-4.56583 2.2089,-8.62103 -11.1535,-12.63736 -10.70569,-3.21778 -16.31739,-6.39006 -19.00951,-10.746 l -2.08703,-3.37688 v -6.48407 -6.48409 l 2.26479,-3.36073 c 1.24564,-1.84839 4.05814,-4.62059 6.25,-6.16044 l 3.98521,-2.79971 6.00004,-1.00208 6,-1.00207 5.5,0.64278 c 6.8356,0.79885 14.5732,3.62622 18.4438,6.7395 l 2.9438,2.36781 -3.298,5.13959 c -1.814,2.82678 -3.7161,5.13959 -4.2271,5.13959 -0.5109,0 -3.2765,-1.20855 -6.1457,-2.68566 l -5.2168,-2.68566 -5.6425,-0.0643 -5.6426,-0.0643 -2.1074,1.90499 c -4.67571,4.22641 -1.6663,7.19925 11.5189,11.37903 11.2467,3.56527 15.7771,6.20703 19.0998,11.13766 l 2.2738,3.37409 -0.01,6.60211 -0.01,6.60212 -2.2449,3.67409 c -5.4854,8.97763 -18.3912,13.25038 -32.5139,10.76439 z m 67.2479,0.10764 c -10.0596,-1.5465 -19.7712,-8.89897 -24.5313,-18.5722 l -2.4476,-4.97391 v -11 -11 l 2.2548,-4.57558 c 3.2536,-6.60259 8.3062,-12.0955 13.9527,-15.1687 l 4.9251,-2.68059 7.2616,-1.12667 7.2615,-1.12667 6.5697,1.14408 c 7.7351,1.347 12.893,3.79115 18.2899,8.66689 l 3.9251,3.54614 2.7299,5.5797 2.7299,5.5797 0.4213,8.8116 0.4213,8.8116 -1.7037,5.20862 c -5.5127,16.85433 -22.1983,25.9294 -42.0602,22.87599 z m 17.0531,-17.51202 4.2077,-2.46589 1.638,-3.45177 c 0.9009,-1.89847 1.9113,-5.44547 2.2453,-7.88223 l 0.6072,-4.43047 -1.6071,-5.52829 -1.6071,-5.52829 -3.9301,-3.55063 -3.9302,-3.55063 -4.5395,-0.68074 -4.5394,-0.68074 -4.5007,2.17874 -4.5007,2.17874 -1.9623,3.17905 c -1.0792,1.74848 -2.5092,5.35479 -3.1778,8.01403 l -1.2155,4.83498 1.2144,5.4266 1.2144,5.42661 2.6261,3.12096 c 3.2959,3.91695 7.4732,5.76648 13.1374,5.81673 l 4.4122,0.0391 4.2077,-2.4659 z m 154.5133,17.43385 c -2.4501,-0.51345 -6.826,-2.09372 -9.7242,-3.5117 l -5.2696,-2.57815 -3.4691,-4.05292 c -1.9081,-2.22911 -4.4508,-6.13919 -5.6504,-8.68906 l -2.1812,-4.63612 -0.5079,-8.11365 -0.5078,-8.11365 1.2454,-5.19161 1.2455,-5.19162 3.8085,-5.69473 3.8085,-5.69474 5.3285,-3.21002 5.3285,-3.21003 7.1725,-1.10497 7.1726,-1.10498 5.6222,1.03932 c 10.8227,2.00069 18.8054,7.93159 22.7853,16.9288 l 2.0509,4.63646 0.4835,9.24394 0.4836,9.24395 -23.3722,0.26877 -23.3721,0.26876 -0.298,1.55036 c -0.3826,1.99028 3.4867,7.68428 6.9802,10.27198 l 2.7086,2.00624 5.5648,0.46148 5.5649,0.46148 6.5836,-3.24112 6.5836,-3.24112 2.5812,1.92714 c 1.4197,1.05993 3.509,3.18108 4.643,4.71368 l 2.0618,2.78654 -4.2868,3.82021 -4.2868,3.82022 -4.68,1.59462 c -5.9288,2.02016 -16.4259,2.74651 -22.2011,1.53624 z m 20.6817,-42.09492 1.1269,-1.12698 -0.9905,-2.62302 c -0.5449,-1.44267 -2.1781,-3.86771 -3.6294,-5.38898 l -2.6387,-2.76595 -3.7977,-1.02259 -3.7976,-1.0226 -3.7976,1.0226 -3.7977,1.02259 -2.6387,2.76595 c -1.4513,1.52127 -3.1348,4.07861 -3.7411,5.68298 l -1.1024,2.91703 1.2887,0.81766 c 0.7089,0.44971 6.9363,0.82455 13.8388,0.83297 l 12.55,0.0153 1.127,-1.12697 z m -721.06037,40.4603 c -0.36667,-0.36665 -0.66667,-21.05808 -0.66667,-45.98093 v -45.3143 l 2.59654,-0.65169 c 1.4281,-0.35843 12.7906,-0.42392 25.25,-0.14554 l 22.65346,0.50613 5.54943,2.1233 5.54942,2.12332 4.1741,4.13279 c 2.29576,2.27302 5.19852,6.21196 6.45058,8.75319 l 2.27647,4.62041 -0.0149,8 -0.015,8 -2.13738,4.65633 c -2.65485,5.78364 -8.87111,11.9222 -15.09649,14.90777 l -4.73622,2.2714 -15,0.44605 -15,0.44606 -1.25,1.00864 -1.25,1.00864 v 14.87755 14.87756 h -9.33333 c -5.13334,0 -9.63334,-0.3 -10,-0.66667 z m 45.37144,-48.58332 4.46189,-2.25 2.31241,-4.5 2.3124,-4.5 -0.48917,-3.91342 c -0.58858,-4.70875 -3.16343,-8.39494 -7.73274,-11.0703 l -3.38803,-1.98372 -10.26785,-0.38009 -10.26784,-0.38009 -1.48959,1.23626 -1.48959,1.23624 v 13.17755 13.17757 l 1.2,1.19999 1.2,1.20001 h 9.58811 9.58811 z m 35.96189,15.75 v -33.5 h 9 9 v 3.44097 c 0,1.89255 0.46246,3.72681 1.02768,4.07614 l 1.02768,0.63513 2.73481,-2.92762 c 3.89841,-4.17326 7.94158,-5.9864 14.22872,-6.3808 l 5.48111,-0.34382 v 8.49578 8.49579 l -5.84247,0.72979 -5.84246,0.72982 -3.53458,2.18448 -3.53457,2.18449 -2.12268,4.58992 -2.12269,4.58993 -0.3297,18.25 -0.32969,18.25 h -9.42058 -9.42058 z m 211.70153,32.86819 c -0.38584,-0.38584 -0.70153,-21.05339 -0.70153,-45.92788 v -45.22633 l 1.58179,-0.60699 c 2.48134,-0.95218 37.11287,-0.64986 45.14976,0.39414 l 7.23155,0.93939 3.99189,2.03652 c 5.46492,2.78799 10.8872,8.43456 13.3801,13.93357 l 2.08055,4.58939 0.0369,8 0.0369,8 -3.09421,5.5 -3.09421,5.5 -5.40052,3.79817 c -2.97028,2.08899 -5.52281,4.14339 -5.6723,4.56535 -0.14948,0.42196 4.01302,7.92734 9.25,16.67864 5.237,8.75129 9.5218,16.48437 9.5218,17.18464 v 1.2732 H 895.54063 885.2545 l -8.83426,-14.95398 c -4.85885,-8.22468 -9.62824,-15.6725 -10.59865,-16.5507 l -1.76438,-1.59675 -6.36522,0.30071 -6.36523,0.30072 -0.5,16 -0.5,16 -9.04847,0.28485 c -4.97667,0.15667 -9.36417,-0.0308 -9.75,-0.41666 z m 45.75459,-49.34695 4.08757,-1.97877 1.72815,-2.92553 1.72816,-2.92552 -0.004,-4.84571 -0.004,-4.84571 -1.95204,-3.20146 c -1.07362,-1.7608 -3.43444,-4.00054 -5.24626,-4.97718 l -3.2937,-1.77575 -11.5,-0.0228 -11.5,-0.0228 -0.28041,13.44954 c -0.15423,7.39725 -0.0559,14.03475 0.21861,14.75 l 0.49903,1.30046 h 10.71566 10.71566 z m 240.54392,4.08575 v -45.89301 l 1.5818,-0.60699 c 2.0515,-0.78724 13.7849,-0.78724 15.8364,0 l 1.5818,0.60699 v 45.89301 45.89301 h -9.5 -9.5 z m 49.2928,44.64301 c -1.1548,-1.51618 -24.2928,-63.09227 -24.2928,-64.64935 v -1.10065 h 9.3776 9.3775 l 0.9257,1.25 c 0.5091,0.6875 3.967,10.59686 7.6842,22.0208 l 6.7586,20.77081 0.8583,-0.53043 c 0.472,-0.29174 3.8796,-9.6386 7.5723,-20.77081 3.6928,-11.13221 7.1588,-20.80288 7.7024,-21.49038 l 0.9883,-1.25 h 8.9941 8.9942 l -0.5154,2.25 c -0.653,2.85052 -22.9822,61.81797 -24.0456,63.50001 l -0.7902,1.25 h -9.3186 -9.3185 z M 352.08028,471.36909 c -3.04759,-1.22514 -35.46014,-34.42008 -36.91,-37.80097 l -1.15649,-2.69675 0.5406,-2.82796 0.5406,-2.82796 4.06733,-3.90825 4.06733,-3.90826 h 4.91442 4.91442 l 11.3614,11.09091 c 6.24877,6.1 11.82088,10.9375 12.38246,10.75 0.56159,-0.1875 13.00188,-12.04091 27.6451,-26.34091 14.64322,-14.3 27.92615,-26.83623 29.51762,-27.8583 l 2.89359,-1.8583 3.68464,0.69126 3.68464,0.69124 3.79941,3.7994 3.79941,3.79942 v 4.35282 4.35282 l -34.25,34.35213 -34.25,34.35212 -3.21788,1.4127 c -3.64973,1.60228 -4.85249,1.65964 -8.0286,0.38284 z"
         id="path349" />
      <path
         style="fill:#63c97a"
         d="m 363.14079,600.64895 c -2.97911,-1.65257 -10.32359,-9.41575 -42.37129,-44.78683 -44.34235,-48.9407 -58.44156,-72.08047 -64.45192,-105.77913 l -1.75074,-9.81595 0.54738,-15.68405 0.54738,-15.68405 2.58409,-9.78373 c 10.47316,-39.65274 40.00628,-69.60908 80.0339,-81.18079 l 8.95282,-2.5882 11.9337,-0.97501 11.93369,-0.975 11.48392,1.06868 11.48391,1.06869 8.12957,2.37717 c 15.45026,4.51781 26.91112,10.24168 38.54097,19.24842 4.07628,3.15687 7.90128,6.5415 8.5,7.5214 l 1.08859,1.78162 -11.68038,11.46838 c -6.42421,6.3076 -12.34413,11.46838 -13.15539,11.46838 -0.81125,0 -3.33069,-1.55039 -5.59875,-3.4453 -10.86557,-9.07793 -24.11872,-14.62705 -39.56548,-16.56613 l -9,-1.12981 -8,0.68645 c -33.27953,2.85555 -60.64656,25.14578 -69.51097,56.61614 l -2.06711,7.33865 -0.56563,10 -0.56564,10 1.9743,9.50252 1.9743,9.50252 4.15431,8.49748 c 9.52378,19.48054 24.61062,32.54666 45.62137,39.51093 l 7.98507,2.64674 12,0.54526 12,0.54525 7.34332,-1.1489 c 31.77967,-4.97209 58.83287,-30.98022 64.18724,-61.70764 l 1.23822,-7.10585 -0.48081,-10.89415 -0.48081,-10.89416 -3.15358,-9.3069 c -1.73447,-5.1188 -3.15358,-9.91532 -3.15358,-10.65892 0,-1.37247 19.51912,-20.46347 23.87914,-23.3554 l 2.37914,-1.57804 1.98393,2.44962 c 5.94319,7.33828 13.69119,28.33745 15.80503,42.8359 l 1.22269,8.38627 -0.56732,13.61373 -0.56731,13.61373 -2.09473,8.5 c -6.84375,27.77061 -20.3317,49.80832 -52.94142,86.50001 -27.1492,30.54763 -50.69825,55.89409 -53.54111,57.6277 l -3.05804,1.86482 -4.0156,0.004 -4.0156,0.004 -3.15477,-1.75 z m 13.66604,-44.00155 c 1.91403,-0.96165 4.50153,-3.2775 5.75,-5.14633 l 2.26993,-3.39789 v -3.40177 c 0,-4.32502 -2.08245,-8.35261 -6.04081,-11.68335 l -3.11264,-2.61911 h -5.84655 -5.84655 l -2.94702,2.47974 c -1.62086,1.36388 -3.51307,3.84632 -4.20491,5.51657 l -1.25789,3.03683 0.50992,4.524 0.50992,4.52401 1.86827,2.10261 c 1.02754,1.15643 3.21826,2.93647 4.86826,3.95568 l 3,1.85308 3.5,0.002 c 1.925,10e-4 5.06603,-0.78462 6.98007,-1.74626 z m 314.34411,-57.68794 c -5.96075,-1.86381 -10.67658,-5.01791 -15.22014,-10.17966 l -3.95384,-4.4918 -1.56137,-4.58239 c -0.85876,-2.52031 -1.83967,-7.33285 -2.1798,-10.69453 l -0.61842,-6.11214 1.50983,-5.75028 c 2.1056,-8.01924 5.94719,-14.1085 11.83884,-18.76558 l 5.03299,-3.97835 5.55835,-1.61586 5.55834,-1.61585 9.16152,0.40069 9.16151,0.4007 5.58551,2.73273 5.58551,2.73274 4.19761,4.55386 c 4.87197,5.28547 7.65154,11.04807 9.09479,18.85532 l 1.02595,5.54988 -1.038,5.61509 c -1.45586,7.87545 -4.63481,13.68949 -10.53725,19.27177 l -5.07663,4.80127 -5.76225,2.15594 -5.76226,2.15593 -8.71248,-0.0669 -8.71249,-0.0669 -4.17582,-1.3057 z m 18.99202,-14.00932 c 4.98311,-1.7772 7.55201,-4.14908 9.80307,-9.05119 l 1.83681,-4 0.022,-5.10078 c 0.0828,-19.2471 -17.96218,-28.59136 -30.24778,-15.66322 -3.38367,3.56064 -4.7303,7.95677 -4.7303,15.44229 0,9.40681 2.95189,14.44798 10.5,17.93167 4.73139,2.18367 7.6489,2.28412 12.8162,0.44123 z m 66.1838,13.56808 c -2.2,-1.01025 -4.85724,-2.80036 -5.90499,-3.97804 -1.04774,-1.17768 -2.48173,-2.14123 -3.18664,-2.14123 h -1.28165 l -0.31336,3.25 -0.31336,3.25 h -8 -8 l -0.26009,-45.75 -0.26009,-45.75 h 9.01009 9.01009 v 15.33332 c 0,8.43334 0.25164,15.58498 0.5592,15.89254 0.30756,0.30756 2.80325,-0.95093 5.54597,-2.79664 5.82346,-3.9189 9.61796,-4.80859 18.16554,-4.25921 l 6.22929,0.40037 4.8583,2.35645 c 9.52872,4.62173 15.57691,13.46087 17.78393,25.99032 l 1.07147,6.08285 -1.07932,6.1274 c -1.43594,8.15197 -4.60739,14.43504 -9.86597,19.54578 l -4.32645,4.20484 -5.50849,2.06098 -5.5085,2.06099 -7.21248,-0.022 -7.21249,-0.022 -4,-1.83681 z m 16.75427,-14.7808 c 1.51484,-0.76683 3.98984,-3.26134 5.5,-5.54333 l 2.74573,-4.14908 v -7.57303 -7.57303 l -2.5,-4.41143 c -1.375,-2.42628 -3.7705,-5.35127 -5.32333,-6.5 l -2.82333,-2.08857 h -6.35334 -6.35334 l -2.82333,2.10452 c -1.55283,1.1575 -3.67352,3.55641 -4.71264,5.33092 l -1.88931,3.22639 -0.47203,6.66909 -0.47204,6.66908 1.11474,4.11944 c 0.6131,2.2657 2.04169,5.29789 3.17464,6.7382 l 2.0599,2.61874 4.68671,1.44009 4.6867,1.44008 3.5,-0.56193 c 1.925,-0.30906 4.73942,-1.18933 6.25427,-1.95615 z m 138.55488,14.90872 c -2.57997,-0.85887 -6.81951,-3.17835 -9.42121,-5.15439 l -4.73036,-3.5928 -3.57879,-6.5 -3.57879,-6.5 v -11 -11 l 2.86207,-5.82875 c 3.48589,-7.09916 7.76675,-11.5303 14.24302,-14.74302 l 4.89491,-2.42823 h 11 11 l 5.35555,2.96637 c 6.53705,3.6208 10.51615,8.27584 13.27803,15.53363 l 2.09298,5.5 0.13672,7.5 0.13672,7.5 -22.96934,0.26933 -22.96933,0.26934 -0.86169,0.86168 -0.86168,0.86168 2.05312,4.02447 c 2.70554,5.3033 6.08629,7.82846 12.251,9.15055 l 5.06092,1.08537 3.96887,-1.06871 c 2.18288,-0.58779 5.3997,-1.94115 7.1485,-3.00747 4.24856,-2.59055 5.1332,-2.47961 9.73827,1.22111 4.9462,3.97488 4.92156,4.83778 -0.26496,9.27725 l -4.20632,3.60045 -4.97518,1.47747 -4.97518,1.47748 -8.5685,-0.0956 -8.5685,-0.0956 -4.69085,-1.56159 z m 26.19085,-41.34607 c 0,-1.15437 -0.73692,-3.65183 -1.63761,-5.54987 l -1.63761,-3.45101 -3.82255,-1.95013 c -6.46414,-3.29775 -13.82342,-2.0073 -18.69183,3.27761 l -2.2896,2.48549 -0.59124,3.64338 -0.59124,3.64341 h 14.63084 14.63084 z m 36.81446,41.27138 c -5.71999,-2.04175 -13.81446,-7.62184 -13.81446,-9.52328 0,-0.7656 1.75388,-3.36239 3.8975,-5.77062 l 3.8975,-4.3786 2.8525,2.09506 c 1.56888,1.15229 4.42024,2.90577 6.33637,3.89662 l 3.48387,1.80155 5.5534,0.10338 5.5533,0.10339 2.7128,-1.77305 2.7128,-1.77306 v -2.92025 -2.92024 l -2.25,-1.5903 c -1.2375,-0.87467 -6.075,-2.75555 -10.75,-4.17975 -11.26708,-3.4324 -15.32928,-5.59739 -18.63537,-9.9319 l -2.75119,-3.607 -0.42417,-5.864 -0.42416,-5.86399 2.644,-4.51166 2.64401,-4.51164 4.72342,-2.77659 4.72342,-2.77657 11.00004,3.2e-4 11,3.2e-4 5.1787,2.34214 c 2.8483,1.28818 5.976,3.22311 6.9504,4.29985 l 1.7717,1.95769 -1.8448,3.42549 c -1.0146,1.88403 -2.5809,4.09172 -3.4807,4.90601 l -1.6359,1.4805 -5.8606,-2.95617 -5.8606,-2.95615 h -5.1366 -5.1366 l -2.2225,1.55669 -2.22254,1.55671 v 2.28831 c 0,3.53029 2.63514,5.18875 14.33284,9.02063 5.9426,1.94663 12.1762,4.51593 13.8524,5.70956 l 3.0479,2.17024 1.8615,4.09893 1.8615,4.09893 v 4.5 4.5 l -1.8692,4.11608 -1.8692,4.11609 -3.5638,2.71821 c -1.96,1.49501 -5.6805,3.35528 -8.2677,4.13391 l -4.7041,1.41571 -7.591,-0.0775 -7.59114,-0.0775 -4.68554,-1.67249 z m 66.48758,-0.2751 -5.198,-1.99838 -5.0016,-4.4969 -5.0017,-4.49689 -2.8003,-5.70262 -2.8004,-5.70261 v -10 -10 l 2.1609,-4.67568 c 1.1885,-2.57162 4.0498,-6.72491 6.3585,-9.22953 l 4.1976,-4.55386 5.6415,-2.77047 5.6415,-2.77046 h 11 11 l 5.5,2.60937 c 7.0778,3.3579 12.6487,8.88164 15.7172,15.584 l 2.4385,5.32655 0.5571,7.36631 0.5572,7.36631 -2.2113,7.27997 -2.2112,7.27996 -5.7499,5.74987 -5.7498,5.74987 -6.7792,2.09389 -6.7793,2.09389 -7.6446,-0.0521 -7.6447,-0.0521 z m 18.9753,-12.95753 c 2.0776,-0.57693 5.2624,-2.35282 7.0774,-3.9464 l 3.3,-2.89743 1.1726,-3.91404 c 5.5075,-18.38244 -7.7612,-34.35065 -23.1094,-27.81088 -8.5396,3.63865 -12.814,15.54063 -9.6601,26.89776 l 1.0466,3.76889 3.4542,3.45417 c 4.9116,4.91158 10.089,6.28901 16.7187,4.44793 z m 155.0469,13.62064 c -5.9679,-1.86605 -10.6777,-5.01913 -15.2413,-10.20366 l -3.975,-4.51581 -1.8039,-5.17052 -1.804,-5.17052 0.023,-9 0.023,-9 2.6469,-5.69651 2.647,-5.6965 4.4229,-4.42296 4.423,-4.42297 5.6944,-2.13054 5.6943,-2.13053 h 7.281 7.281 l 4.9752,1.47747 4.9752,1.47747 4.2133,3.60649 c 7.5926,6.49894 11.8217,17.40826 11.0245,28.43857 l -0.3252,4.5 -23.25,0.26843 -23.25,0.26843 v 2.33369 c 0,1.28352 1.0184,3.86273 2.2632,5.73157 l 2.2632,3.39788 3.7363,1.83211 3.7362,1.8321 5.4377,0.0489 5.4376,0.0489 5.5553,-3.13522 5.5553,-3.13523 4.0076,3.62062 4.0076,3.62062 v 1.79713 1.79713 l -4.2421,3.11966 c -2.3331,1.71581 -6.4648,3.77974 -9.1815,4.58651 l -4.9389,1.46678 -7.5685,-0.0669 c -4.1627,-0.0368 -9.4476,-0.65445 -11.7443,-1.37258 z m 25.3104,-41.0506 0.5718,-1.49009 -1.9218,-3.70322 c -1.057,-2.03678 -3.1615,-4.62874 -4.6766,-5.75991 l -2.7547,-2.05669 h -5.8533 -5.8533 l -2.6774,2 c -1.4726,1.1 -3.6095,3.60753 -4.7486,5.57229 l -2.0711,3.5723 0.6438,1.6777 0.6438,1.67771 h 14.0628 14.0628 z m -722.16234,40.27783 c -0.27165,-0.70826 -0.37654,-21.31274 -0.2331,-45.78774 l 0.2608,-44.5 h 26 26 l 5.24164,2.36955 5.24165,2.36955 3.62102,4.00803 c 1.99157,2.20443 4.52344,6.04809 5.62638,8.54146 l 2.00534,4.53341 0.0921,6.089 0.0921,6.089 -1.86291,5.46798 -1.86292,5.46799 -5.12924,5.12924 -5.12924,5.12924 -5.46799,1.84807 -5.46793,1.84807 -14.5,0.5547 -14.5,0.55471 -0.5,15.5 -0.5,15.5 -9.2669,0.28774 -9.2669,0.28775 z m 46.55408,-47.8012 3.9467,-2.01347 2.12375,-4.16287 2.12374,-4.16288 -0.45122,-4.69591 -0.45121,-4.69589 -2.17171,-3.04988 -2.17171,-3.04988 -4.23736,-1.61685 -4.23736,-1.61686 -10.5,0.28898 -10.5,0.28897 -0.27953,13.95184 c -0.15375,7.67352 -0.0554,14.53602 0.21861,15.25 l 0.49815,1.29816 h 11.07122 11.07123 z m 35.44289,47.79398 c -0.27391,-0.7138 -0.37905,-15.69393 -0.23365,-33.28917 l 0.26438,-31.99135 h 8.5 8.5 l 0.3075,4.25 c 0.36691,5.07119 0.912,5.20398 4.75541,1.15841 1.6154,-1.70037 4.65274,-3.97388 6.74964,-5.05223 l 3.81256,-1.96065 4.68744,0.30223 4.68745,0.30224 0.29206,7.75 0.29207,7.75 h -1.99284 c -1.09607,0 -4.27813,0.4901 -7.07126,1.08912 l -5.07842,1.08912 -3.10678,2.61418 c -1.70873,1.4378 -3.83033,4.2102 -4.71467,6.16089 l -1.60789,3.54669 -0.50613,18.5 -0.50614,18.5 -8.76635,0.28917 -8.76636,0.28917 z m 211.02208,-1.03052 c -0.30072,-1.2375 -0.42179,-21.82501 -0.26905,-45.75 l 0.2777,-43.5 24.16548,-0.2676 24.16549,-0.26757 5.66647,2.12009 c 6.77922,2.53643 11.64264,6.59159 15.21387,12.68543 l 2.63486,4.49604 0.45637,7.88358 0.45637,7.88356 -1.75231,4.58836 c -2.1563,5.64619 -6.44074,10.6511 -11.6002,13.55087 l -3.9064,2.19552 v 1.59763 c 0,0.87869 2.98383,6.53332 6.63072,12.56586 3.6469,6.03253 7.94794,13.16969 9.55786,15.86037 l 2.92714,4.89214 -0.89751,0.89751 -0.89751,0.89751 -9.35574,-0.28965 -9.35575,-0.28965 -9.5546,-16 -9.55461,-16 -7.41189,-0.29709 -7.41189,-0.29706 -0.7634,1.23519 c -0.41987,0.67938 -0.70492,7.56952 -0.63345,15.31144 0.0715,7.74192 -0.21371,14.63226 -0.63373,15.31187 l -0.76367,1.23565 h -8.42193 -8.42194 z m 46.83718,-47.51486 c 1.62933,-0.95434 3.89338,-2.98411 5.03123,-4.51065 l 2.06881,-2.77549 v -5.449 -5.44902 l -2.02607,-2.71371 c -1.11434,-1.49253 -3.26698,-3.6415 -4.78363,-4.77549 l -2.75756,-2.06178 -12.39134,-0.33072 -12.39135,-0.33072 -0.6817,2.71611 c -0.75503,3.0083 0.32062,26.17929 1.28797,27.74449 l 0.61108,0.98874 11.53508,-0.65881 11.53508,-0.65882 z m 240.14431,48.55403 c -0.2719,-0.70904 -0.377,-21.31417 -0.2336,-45.78917 l 0.2608,-44.5 h 9 9 v 45.5 45.5 l -8.7664,0.28917 -8.7663,0.28917 z m 48.5465,-1.0029 c -2.8134,-6.62503 -23.2404,-61.50766 -23.3688,-62.78627 l -0.1505,-1.5 h 9.4238 9.4237 l 7.2196,21.96445 c 3.9708,12.08046 7.6278,22.10049 8.1265,22.26674 0.4988,0.16626 4.2592,-9.71775 8.3566,-21.96446 l 7.4498,-22.26673 8.407,-0.29299 c 4.6239,-0.16113 8.735,0.0639 9.1358,0.5 0.4008,0.43614 -4.7759,15.41799 -11.5038,33.29299 l -12.2326,32.5 -9.6581,0.28626 -9.6581,0.28627 z m -833.76135,-44.1151 -18.25799,-18.32881 v -4.30275 -4.30277 l 4.36842,-4.36842 4.36842,-4.36842 h 4.78513 4.78513 l 11.14913,11 c 6.13202,6.04999 11.73755,11 12.45674,11 0.71919,0 12.94991,-11.55071 27.17938,-25.66825 14.22947,-14.11753 27.11733,-26.48957 28.6397,-27.4934 l 2.76795,-1.82518 4.11514,-0.007 4.11514,-0.007 2.65484,2.0883 c 3.4429,2.70819 5.60858,6.97526 5.63972,11.11204 l 0.0249,3.29966 -35.77485,35.23053 -35.77484,35.23053 -4.49201,0.0195 -4.49201,0.0195 -18.25799,-18.32882 z"
         id="path347" />
      <path
         style="fill:#76949b"
         d="m 363.14079,600.64895 c -2.97911,-1.65257 -10.32359,-9.41575 -42.37129,-44.78683 -44.34235,-48.9407 -58.44156,-72.08047 -64.45192,-105.77913 l -1.75074,-9.81595 0.54738,-15.68405 0.54738,-15.68405 2.58409,-9.78373 c 10.47316,-39.65274 40.00628,-69.60908 80.0339,-81.18079 l 8.95282,-2.5882 11.9337,-0.97501 11.93369,-0.975 11.48392,1.06868 11.48391,1.06869 8.12957,2.37717 c 15.45026,4.51781 26.91112,10.24168 38.54097,19.24842 4.07628,3.15687 7.90128,6.5415 8.5,7.5214 l 1.08859,1.78162 -11.68038,11.46838 c -6.42421,6.3076 -12.34413,11.46838 -13.15539,11.46838 -0.81125,0 -3.33069,-1.55039 -5.59875,-3.4453 -10.86557,-9.07793 -24.11872,-14.62705 -39.56548,-16.56613 l -9,-1.12981 -8,0.68645 c -33.27953,2.85555 -60.64656,25.14578 -69.51097,56.61614 l -2.06711,7.33865 -0.56563,10 -0.56564,10 1.9743,9.50252 1.9743,9.50252 4.15431,8.49748 c 9.52378,19.48054 24.61062,32.54666 45.62137,39.51093 l 7.98507,2.64674 12,0.54526 12,0.54525 7.34332,-1.1489 c 31.77967,-4.97209 58.83287,-30.98022 64.18724,-61.70764 l 1.23822,-7.10585 -0.48081,-10.89415 -0.48081,-10.89416 -3.15358,-9.3069 c -1.73447,-5.1188 -3.15358,-9.91532 -3.15358,-10.65892 0,-1.37247 19.51912,-20.46347 23.87914,-23.3554 l 2.37914,-1.57804 1.98393,2.44962 c 5.94319,7.33828 13.69119,28.33745 15.80503,42.8359 l 1.22269,8.38627 -0.56732,13.61373 -0.56731,13.61373 -2.09473,8.5 c -6.84375,27.77061 -20.3317,49.80832 -52.94142,86.50001 -27.1492,30.54763 -50.69825,55.89409 -53.54111,57.6277 l -3.05804,1.86482 -4.0156,0.004 -4.0156,0.004 -3.15477,-1.75 z m 13.66604,-44.00155 c 1.91403,-0.96165 4.50153,-3.2775 5.75,-5.14633 l 2.26993,-3.39789 v -3.40177 c 0,-4.32502 -2.08245,-8.35261 -6.04081,-11.68335 l -3.11264,-2.61911 h -5.84655 -5.84655 l -2.94702,2.47974 c -1.62086,1.36388 -3.51307,3.84632 -4.20491,5.51657 l -1.25789,3.03683 0.50992,4.524 0.50992,4.52401 1.86827,2.10261 c 1.02754,1.15643 3.21826,2.93647 4.86826,3.95568 l 3,1.85308 3.5,0.002 c 1.925,10e-4 5.06603,-0.78462 6.98007,-1.74626 z m 314.34411,-57.68794 c -5.96075,-1.86381 -10.67658,-5.01791 -15.22014,-10.17966 l -3.95384,-4.4918 -1.56137,-4.58239 c -0.85876,-2.52031 -1.83967,-7.33285 -2.1798,-10.69453 l -0.61842,-6.11214 1.50983,-5.75028 c 2.1056,-8.01924 5.94719,-14.1085 11.83884,-18.76558 l 5.03299,-3.97835 5.55835,-1.61586 5.55834,-1.61585 9.16152,0.40069 9.16151,0.4007 5.58551,2.73273 5.58551,2.73274 4.19761,4.55386 c 4.87197,5.28547 7.65154,11.04807 9.09479,18.85532 l 1.02595,5.54988 -1.038,5.61509 c -1.45586,7.87545 -4.63481,13.68949 -10.53725,19.27177 l -5.07663,4.80127 -5.76225,2.15594 -5.76226,2.15593 -8.71248,-0.0669 -8.71249,-0.0669 -4.17582,-1.3057 z m 18.99202,-14.00932 c 4.98311,-1.7772 7.55201,-4.14908 9.80307,-9.05119 l 1.83681,-4 0.022,-5.10078 c 0.0828,-19.2471 -17.96218,-28.59136 -30.24778,-15.66322 -3.38367,3.56064 -4.7303,7.95677 -4.7303,15.44229 0,9.40681 2.95189,14.44798 10.5,17.93167 4.73139,2.18367 7.6489,2.28412 12.8162,0.44123 z m 66.1838,13.56808 c -2.2,-1.01025 -4.85724,-2.80036 -5.90499,-3.97804 -1.04774,-1.17768 -2.48173,-2.14123 -3.18664,-2.14123 h -1.28165 l -0.31336,3.25 -0.31336,3.25 h -8 -8 l -0.26009,-45.75 -0.26009,-45.75 h 9.01009 9.01009 v 15.33332 c 0,8.43334 0.25164,15.58498 0.5592,15.89254 0.30756,0.30756 2.80325,-0.95093 5.54597,-2.79664 5.82346,-3.9189 9.61796,-4.80859 18.16554,-4.25921 l 6.22929,0.40037 4.8583,2.35645 c 9.52872,4.62173 15.57691,13.46087 17.78393,25.99032 l 1.07147,6.08285 -1.07932,6.1274 c -1.43594,8.15197 -4.60739,14.43504 -9.86597,19.54578 l -4.32645,4.20484 -5.50849,2.06098 -5.5085,2.06099 -7.21248,-0.022 -7.21249,-0.022 -4,-1.83681 z m 16.75427,-14.7808 c 1.51484,-0.76683 3.98984,-3.26134 5.5,-5.54333 l 2.74573,-4.14908 v -7.57303 -7.57303 l -2.5,-4.41143 c -1.375,-2.42628 -3.7705,-5.35127 -5.32333,-6.5 l -2.82333,-2.08857 h -6.35334 -6.35334 l -2.82333,2.10452 c -1.55283,1.1575 -3.67352,3.55641 -4.71264,5.33092 l -1.88931,3.22639 -0.47203,6.66909 -0.47204,6.66908 1.11474,4.11944 c 0.6131,2.2657 2.04169,5.29789 3.17464,6.7382 l 2.0599,2.61874 4.68671,1.44009 4.6867,1.44008 3.5,-0.56193 c 1.925,-0.30906 4.73942,-1.18933 6.25427,-1.95615 z m 138.55488,14.90872 c -2.57997,-0.85887 -6.81951,-3.17835 -9.42121,-5.15439 l -4.73036,-3.5928 -3.57879,-6.5 -3.57879,-6.5 v -11 -11 l 2.86207,-5.82875 c 3.48589,-7.09916 7.76675,-11.5303 14.24302,-14.74302 l 4.89491,-2.42823 h 11 11 l 5.35555,2.96637 c 6.53705,3.6208 10.51615,8.27584 13.27803,15.53363 l 2.09298,5.5 0.13672,7.5 0.13672,7.5 -22.96934,0.26933 -22.96933,0.26934 -0.86169,0.86168 -0.86168,0.86168 2.05312,4.02447 c 2.70554,5.3033 6.08629,7.82846 12.251,9.15055 l 5.06092,1.08537 3.96887,-1.06871 c 2.18288,-0.58779 5.3997,-1.94115 7.1485,-3.00747 4.24856,-2.59055 5.1332,-2.47961 9.73827,1.22111 4.9462,3.97488 4.92156,4.83778 -0.26496,9.27725 l -4.20632,3.60045 -4.97518,1.47747 -4.97518,1.47748 -8.5685,-0.0956 -8.5685,-0.0956 -4.69085,-1.56159 z m 26.19085,-41.34607 c 0,-1.15437 -0.73692,-3.65183 -1.63761,-5.54987 l -1.63761,-3.45101 -3.82255,-1.95013 c -6.46414,-3.29775 -13.82342,-2.0073 -18.69183,3.27761 l -2.2896,2.48549 -0.59124,3.64338 -0.59124,3.64341 h 14.63084 14.63084 z m 36.81446,41.27138 c -5.71999,-2.04175 -13.81446,-7.62184 -13.81446,-9.52328 0,-0.7656 1.75388,-3.36239 3.8975,-5.77062 l 3.8975,-4.3786 2.8525,2.09506 c 1.56888,1.15229 4.42024,2.90577 6.33637,3.89662 l 3.48387,1.80155 5.5534,0.10338 5.5533,0.10339 2.7128,-1.77305 2.7128,-1.77306 v -2.92025 -2.92024 l -2.25,-1.5903 c -1.2375,-0.87467 -6.075,-2.75555 -10.75,-4.17975 -11.26708,-3.4324 -15.32928,-5.59739 -18.63537,-9.9319 l -2.75119,-3.607 -0.42417,-5.864 -0.42416,-5.86399 2.644,-4.51166 2.64401,-4.51164 4.72342,-2.77659 4.72342,-2.77657 11.00004,3.2e-4 11,3.2e-4 5.1787,2.34214 c 2.8483,1.28818 5.976,3.22311 6.9504,4.29985 l 1.7717,1.95769 -1.8448,3.42549 c -1.0146,1.88403 -2.5809,4.09172 -3.4807,4.90601 l -1.6359,1.4805 -5.8606,-2.95617 -5.8606,-2.95615 h -5.1366 -5.1366 l -2.2225,1.55669 -2.22254,1.55671 v 2.28831 c 0,3.53029 2.63514,5.18875 14.33284,9.02063 5.9426,1.94663 12.1762,4.51593 13.8524,5.70956 l 3.0479,2.17024 1.8615,4.09893 1.8615,4.09893 v 4.5 4.5 l -1.8692,4.11608 -1.8692,4.11609 -3.5638,2.71821 c -1.96,1.49501 -5.6805,3.35528 -8.2677,4.13391 l -4.7041,1.41571 -7.591,-0.0775 -7.59114,-0.0775 -4.68554,-1.67249 z m 66.48758,-0.2751 -5.198,-1.99838 -5.0016,-4.4969 -5.0017,-4.49689 -2.8003,-5.70262 -2.8004,-5.70261 v -10 -10 l 2.1609,-4.67568 c 1.1885,-2.57162 4.0498,-6.72491 6.3585,-9.22953 l 4.1976,-4.55386 5.6415,-2.77047 5.6415,-2.77046 h 11 11 l 5.5,2.60937 c 7.0778,3.3579 12.6487,8.88164 15.7172,15.584 l 2.4385,5.32655 0.5571,7.36631 0.5572,7.36631 -2.2113,7.27997 -2.2112,7.27996 -5.7499,5.74987 -5.7498,5.74987 -6.7792,2.09389 -6.7793,2.09389 -7.6446,-0.0521 -7.6447,-0.0521 z m 18.9753,-12.95753 c 2.0776,-0.57693 5.2624,-2.35282 7.0774,-3.9464 l 3.3,-2.89743 1.1726,-3.91404 c 5.5075,-18.38244 -7.7612,-34.35065 -23.1094,-27.81088 -8.5396,3.63865 -12.814,15.54063 -9.6601,26.89776 l 1.0466,3.76889 3.4542,3.45417 c 4.9116,4.91158 10.089,6.28901 16.7187,4.44793 z m 155.0469,13.62064 c -5.9679,-1.86605 -10.6777,-5.01913 -15.2413,-10.20366 l -3.975,-4.51581 -1.8039,-5.17052 -1.804,-5.17052 0.023,-9 0.023,-9 2.6469,-5.69651 2.647,-5.6965 4.4229,-4.42296 4.423,-4.42297 5.6944,-2.13054 5.6943,-2.13053 h 7.281 7.281 l 4.9752,1.47747 4.9752,1.47747 4.2133,3.60649 c 7.5926,6.49894 11.8217,17.40826 11.0245,28.43857 l -0.3252,4.5 -23.25,0.26843 -23.25,0.26843 v 2.33369 c 0,1.28352 1.0184,3.86273 2.2632,5.73157 l 2.2632,3.39788 3.7363,1.83211 3.7362,1.8321 5.4377,0.0489 5.4376,0.0489 5.5553,-3.13522 5.5553,-3.13523 4.0076,3.62062 4.0076,3.62062 v 1.79713 1.79713 l -4.2421,3.11966 c -2.3331,1.71581 -6.4648,3.77974 -9.1815,4.58651 l -4.9389,1.46678 -7.5685,-0.0669 c -4.1627,-0.0368 -9.4476,-0.65445 -11.7443,-1.37258 z m 25.3104,-41.0506 0.5718,-1.49009 -1.9218,-3.70322 c -1.057,-2.03678 -3.1615,-4.62874 -4.6766,-5.75991 l -2.7547,-2.05669 h -5.8533 -5.8533 l -2.6774,2 c -1.4726,1.1 -3.6095,3.60753 -4.7486,5.57229 l -2.0711,3.5723 0.6438,1.6777 0.6438,1.67771 h 14.0628 14.0628 z m -722.16234,40.27783 c -0.27165,-0.70826 -0.37654,-21.31274 -0.2331,-45.78774 l 0.2608,-44.5 h 26 26 l 5.24164,2.36955 5.24165,2.36955 3.62102,4.00803 c 1.99157,2.20443 4.52344,6.04809 5.62638,8.54146 l 2.00534,4.53341 0.0921,6.089 0.0921,6.089 -1.86291,5.46798 -1.86292,5.46799 -5.12924,5.12924 -5.12924,5.12924 -5.46799,1.84807 -5.46793,1.84807 -14.5,0.5547 -14.5,0.55471 -0.5,15.5 -0.5,15.5 -9.2669,0.28774 -9.2669,0.28775 z m 46.55408,-47.8012 3.9467,-2.01347 2.12375,-4.16287 2.12374,-4.16288 -0.45122,-4.69591 -0.45121,-4.69589 -2.17171,-3.04988 -2.17171,-3.04988 -4.23736,-1.61685 -4.23736,-1.61686 -10.5,0.28898 -10.5,0.28897 -0.27953,13.95184 c -0.15375,7.67352 -0.0554,14.53602 0.21861,15.25 l 0.49815,1.29816 h 11.07122 11.07123 z m 35.44289,47.79398 c -0.27391,-0.7138 -0.37905,-15.69393 -0.23365,-33.28917 l 0.26438,-31.99135 h 8.5 8.5 l 0.3075,4.25 c 0.36691,5.07119 0.912,5.20398 4.75541,1.15841 1.6154,-1.70037 4.65274,-3.97388 6.74964,-5.05223 l 3.81256,-1.96065 4.68744,0.30223 4.68745,0.30224 0.29206,7.75 0.29207,7.75 h -1.99284 c -1.09607,0 -4.27813,0.4901 -7.07126,1.08912 l -5.07842,1.08912 -3.10678,2.61418 c -1.70873,1.4378 -3.83033,4.2102 -4.71467,6.16089 l -1.60789,3.54669 -0.50613,18.5 -0.50614,18.5 -8.76635,0.28917 -8.76636,0.28917 z m 211.02208,-1.03052 c -0.30072,-1.2375 -0.42179,-21.82501 -0.26905,-45.75 l 0.2777,-43.5 24.16548,-0.2676 24.16549,-0.26757 5.66647,2.12009 c 6.77922,2.53643 11.64264,6.59159 15.21387,12.68543 l 2.63486,4.49604 0.45637,7.88358 0.45637,7.88356 -1.75231,4.58836 c -2.1563,5.64619 -6.44074,10.6511 -11.6002,13.55087 l -3.9064,2.19552 v 1.59763 c 0,0.87869 2.98383,6.53332 6.63072,12.56586 3.6469,6.03253 7.94794,13.16969 9.55786,15.86037 l 2.92714,4.89214 -0.89751,0.89751 -0.89751,0.89751 -9.35574,-0.28965 -9.35575,-0.28965 -9.5546,-16 -9.55461,-16 -7.41189,-0.29709 -7.41189,-0.29706 -0.7634,1.23519 c -0.41987,0.67938 -0.70492,7.56952 -0.63345,15.31144 0.0715,7.74192 -0.21371,14.63226 -0.63373,15.31187 l -0.76367,1.23565 h -8.42193 -8.42194 z m 46.83718,-47.51486 c 1.62933,-0.95434 3.89338,-2.98411 5.03123,-4.51065 l 2.06881,-2.77549 v -5.449 -5.44902 l -2.02607,-2.71371 c -1.11434,-1.49253 -3.26698,-3.6415 -4.78363,-4.77549 l -2.75756,-2.06178 -12.39134,-0.33072 -12.39135,-0.33072 -0.6817,2.71611 c -0.75503,3.0083 0.32062,26.17929 1.28797,27.74449 l 0.61108,0.98874 11.53508,-0.65881 11.53508,-0.65882 z m 240.14431,48.55403 c -0.2719,-0.70904 -0.377,-21.31417 -0.2336,-45.78917 l 0.2608,-44.5 h 9 9 v 45.5 45.5 l -8.7664,0.28917 -8.7663,0.28917 z m 48.5465,-1.0029 c -2.8134,-6.62503 -23.2404,-61.50766 -23.3688,-62.78627 l -0.1505,-1.5 h 9.4238 9.4237 l 7.2196,21.96445 c 3.9708,12.08046 7.6278,22.10049 8.1265,22.26674 0.4988,0.16626 4.2592,-9.71775 8.3566,-21.96446 l 7.4498,-22.26673 8.407,-0.29299 c 4.6239,-0.16113 8.735,0.0639 9.1358,0.5 0.4008,0.43614 -4.7759,15.41799 -11.5038,33.29299 l -12.2326,32.5 -9.6581,0.28626 -9.6581,0.28627 z"
         id="path345" />
      <path
         style="fill:#687997"
         d="m 365.13021,601.33762 -3.19654,-0.96816 -16.30346,-17.6701 c -54.41705,-58.97859 -66.0838,-73.88297 -79.00172,-100.92547 l -4.92018,-10.29994 -3.12804,-11.7875 -3.12803,-11.7875 v -18.5 -18.5 l 3.08951,-11.63498 3.08952,-11.63497 4.56326,-9.50772 c 13.85638,-28.87025 39.99526,-50.31937 73.63223,-60.42132 l 8.5,-2.55274 17.5,-0.48698 17.5,-0.48698 8.95453,1.68341 c 18.86284,3.54613 39.76096,13.46061 51.73115,24.54228 l 5.94099,5.5 -12.0698,11.99081 -12.06979,11.99081 -1.34703,-0.99081 c -0.74087,-0.54495 -3.55046,-2.66732 -6.24354,-4.71639 -7.36958,-5.60723 -17.38341,-10.58116 -26.09603,-12.96208 l -7.80048,-2.13164 -14.5,-0.0336 -14.5,-0.0335 -6.33065,1.74148 c -29.56217,8.13213 -52.51207,33.3829 -57.22009,62.95673 l -1.2436,7.8118 0.62532,10.1882 c 0.79263,12.91427 2.69923,19.95866 8.38835,30.99283 l 4.53959,8.80464 7.46012,7.93015 7.46012,7.93015 7.46651,4.65367 c 4.10658,2.55952 11.37877,6.05323 16.16042,7.7638 l 8.69391,3.11013 h 18 18 l 8.76121,-3.13333 c 20.56781,-7.35578 36.55762,-21.27326 45.79964,-39.86386 l 3.97707,-8 1.56849,-7.5 1.56848,-7.5 -0.40497,-13 -0.40496,-13 -3.24697,-9.30651 c -1.78584,-5.11859 -3.10545,-9.67688 -2.93248,-10.12955 0.17297,-0.45265 5.58644,-5.82722 12.02994,-11.94348 l 11.71545,-11.12046 h 1.82156 1.82155 l 3.55995,6.25 c 4.17163,7.32387 7.97147,17.07497 11.00857,28.25 l 2.1742,8 0.0582,17.5 0.0582,17.5 -2.24162,9 c -5.62645,22.58991 -15.32286,41.17647 -33.90983,65 -11.43191,14.65265 -65.04449,74.2716 -71.23579,79.21654 l -2.77521,2.21653 -3.88537,0.48689 c -2.13695,0.26779 -5.32382,0.0512 -7.08192,-0.48128 z m 11.49621,-44.34366 c 1.48519,-0.77274 3.82534,-2.60899 5.20034,-4.08056 l 2.5,-2.67558 v -5.66943 -5.66944 l -2.26264,-3.17212 -2.26264,-3.17212 -4.44422,-1.69726 -4.44422,-1.69727 -3.74373,0.70233 -3.74373,0.70233 -3.79941,3.7994 -3.79941,3.79941 v 5.1673 5.16731 l 1.54855,2.99456 c 0.8517,1.64701 2.9892,3.87298 4.75,4.9466 l 3.20145,1.95204 4.29966,0.004 c 2.36481,0.002 5.51481,-0.6285 7,-1.40125 z m 316.91784,-57.6866 c -8.54078,-2.01111 -16.96298,-8.26878 -20.924,-15.54648 l -2.64868,-4.86651 -1.19978,-6.88963 -1.19978,-6.88963 1.24692,-5.60808 c 2.6455,-11.89828 9.07544,-20.33462 19.00782,-24.939 l 5.5,-2.54966 8.09136,-0.42679 8.09137,-0.42678 5.84986,1.7006 c 10.93234,3.17812 18.30447,10.13665 22.43491,21.17624 l 2.0325,5.43233 v 6.92498 6.92496 l -1.9797,5.28753 c -3.63002,9.69532 -11.73952,17.1418 -21.97988,20.18286 l -5.40342,1.60465 -6.5685,-0.10046 c -3.61268,-0.0553 -8.27062,-0.50126 -10.351,-0.99113 z m 16.9674,-13.97204 c 3.8309,-1.4474 8.27321,-5.76278 9.93826,-9.65426 l 1.37684,-3.21788 -0.022,-6.28212 -0.022,-6.28212 -1.85194,-4 c -1.01857,-2.2 -3.26649,-5.32917 -4.99539,-6.95371 l -3.14345,-2.95371 -6.50524,-0.41423 -6.50525,-0.41422 -4.06578,2.69061 -4.06579,2.69061 -2.09541,4.67732 -2.09542,4.67733 -0.0221,6.56083 -0.0221,6.56083 2.67899,4.57137 2.679,4.57136 4.27689,2.11702 4.27688,2.11702 3.6849,7.9e-4 c 2.0267,4.4e-4 4.9517,-0.47784 6.5,-1.06283 z m 68.15345,13.94079 c -2.0139,-0.56872 -5.46043,-2.57376 -7.65896,-4.4556 -4.83834,-4.14145 -5.17939,-4.18237 -5.17939,-0.62157 0,1.54 -0.54,3.34 -1.2,4 l -1.2,1.20001 h -6.17756 -6.17755 l -1.13294,-1.36511 -1.13295,-1.36512 0.2605,-44.38489 0.2605,-44.38488 h 8.5 8.5 l 0.27539,15.75 0.2754,15.75 h 1.35216 c 0.74369,0 1.96976,-0.74662 2.72461,-1.65914 0.75484,-0.91252 3.62244,-2.70812 6.37244,-3.99023 l 5,-2.33109 5.0685,-0.01 c 14.46795,-0.0279 26.12555,8.46119 30.78596,22.41837 l 1.64554,4.92813 v 7.78436 7.78433 l -2.05375,5.48916 -2.05375,5.48914 -4.41682,4.91257 -4.41682,4.91256 -5.27943,2.28787 -5.27943,2.28787 -7,0.30354 c -3.85,0.16696 -8.64774,-0.16178 -10.66165,-0.7305 z m 15.78197,-16.40114 c 1.86898,-1.42554 4.29399,-4.3479 5.38891,-6.49412 l 1.99077,-3.90223 -0.006,-5.28984 c -0.0107,-10.17086 -4.12089,-17.94273 -10.99487,-20.79001 l -3.00965,-1.24665 -5.52704,0.45834 -5.52703,0.45835 -3.47769,3.37071 -3.47769,3.37071 -0.98465,3.54435 c -1.26643,4.55867 -1.26463,14.53652 0.003,19.10121 1.13033,4.06886 5.12538,8.18814 9.50075,9.79621 l 3,1.10258 4.86109,-0.44386 4.86109,-0.44386 3.39814,-2.59189 z m 137.73265,15.51964 -6.14703,-2.00499 -5.05261,-4.54273 -5.0526,-4.54272 -2.80037,-5.70262 -2.80036,-5.7026 0.005,-10 0.005,-10 2.59575,-5.54564 c 1.42767,-3.05009 4.04353,-7.19456 5.81304,-9.20992 l 3.21728,-3.66428 5.57336,-2.72679 5.57337,-2.72679 8.10824,-0.41024 8.10824,-0.41023 5.91881,2.23195 5.91881,2.23195 4.21792,3.88794 4.21792,3.88794 2.23619,5.19817 c 1.22991,2.859 2.67556,8.48622 3.21256,12.50495 l 0.97637,7.30678 -1.22173,1.4721 -1.22174,1.47211 H 950.7036 927.82604 v 1.61384 c 0,0.88761 0.95305,3.30957 2.11789,5.38211 l 2.11788,3.76828 4.13212,2.34822 4.13211,2.34824 6,0.009 6,0.009 4.87595,-2.73929 c 6.25641,-3.51481 6.48601,-3.48906 11.10946,1.24577 l 3.8913,3.98506 -2.38307,2.53665 c -1.31069,1.39517 -4.85775,3.74741 -7.88236,5.22722 l -5.49929,2.69055 -9.05599,0.28806 -9.056,0.28807 -6.14703,-2.005 z m 26.13991,-39.98414 c 0.336,-0.54366 -0.28183,-3.00666 -1.37296,-5.47333 l -1.98386,-4.48486 -3.31803,-2.02293 -3.31803,-2.02293 -4.5,-0.002 -4.5,-0.002 -3.46598,1.74844 c -3.57769,1.8048 -6.39146,5.70556 -7.57294,10.49845 l -0.6779,2.75 h 15.04939 15.0494 l 0.61091,-0.98847 z m 36.89126,39.99572 -6.11586,-1.99743 -4.22181,-3.75491 -4.22181,-3.75491 3.63347,-4.75 c 1.99842,-2.6125 3.79265,-4.75 3.98719,-4.75 0.19453,0 2.65439,1.54825 5.46634,3.44055 l 5.11263,3.44055 4.48125,0.672 c 2.4646,0.3696 6.0397,0.37962 7.9445,0.0223 l 3.4633,-0.64972 2.0434,-2.59767 c 2.5769,-3.27603 2.5588,-4.15032 -0.1454,-7.02879 l -2.1886,-2.32973 -10.0614,-3.06696 c -5.53374,-1.68683 -11.69432,-4.12527 -13.69019,-5.41874 l -3.62885,-2.35177 -2.12115,-4.38171 c -4.60693,-9.51665 -0.79598,-19.77898 9.25954,-24.93458 l 3.8807,-1.98968 7.11935,-0.5367 7.1193,-0.5367 6.234,1.5989 c 6.1662,1.58153 14.266,6.0392 14.266,7.85121 0,0.51532 -1.3537,2.90452 -3.0083,5.30934 l -3.0083,4.3724 -5.5932,-2.94223 -5.5933,-2.94222 h -6.2435 -6.2434 l -1.655,1.82874 c -0.9103,1.00581 -1.65504,2.97905 -1.65504,4.38499 v 2.55625 l 2.25004,1.41605 c 1.2375,0.77882 6.9488,2.93469 12.6917,4.79081 l 10.4417,3.37476 3.7988,3.43195 3.7987,3.43196 1.1103,4.12308 c 1.4742,5.4749 0.6645,10.69613 -2.4947,16.0869 l -2.5938,4.42611 -5.6431,2.7609 -5.6431,2.7609 -8.1083,0.31565 -8.1082,0.31563 -6.1159,-1.99743 z m 68.0205,0.38505 c -2.8025,-0.85934 -7.3025,-3.22726 -10,-5.26203 l -4.9046,-3.6996 -3.2068,-5.34883 -3.2068,-5.34883 -1.1617,-5.59577 -1.1617,-5.59577 0.6181,-6.02074 0.6181,-6.02073 3.0209,-6.16445 3.021,-6.16444 3.6838,-3.23444 c 2.0261,-1.77895 6.1794,-4.40494 9.2295,-5.83556 l 5.5456,-2.6011 h 9.5 9.5 l 5.3914,1.99838 5.3914,1.99839 4.4059,3.87826 c 4.9766,4.38057 8.4431,10.60278 10.3022,18.49201 l 1.2647,5.36706 -0.5384,5.13294 c -0.2962,2.82312 -1.5468,7.81597 -2.7791,11.09521 l -2.2406,5.96226 -4.8372,4.71157 -4.8372,4.71158 -5.7616,2.21573 -5.7615,2.21573 -8,0.33781 -8,0.33781 z m 20.0297,-14.37746 4.0657,-1.98517 2.4753,-3.65545 2.4752,-3.65546 0.3747,-6.6313 0.3747,-6.6313 -1.0781,-4.0038 -1.0781,-4.00379 -4.0033,-3.90914 -4.0033,-3.90913 -5.9862,-0.433 -5.9862,-0.433 -3.7577,2.21709 c -6.5424,3.86012 -9.1135,9.09874 -9.2309,18.80845 l -0.076,6.28984 1.9908,3.90223 c 3.2519,6.37425 8.5288,9.65164 15.9435,9.90209 l 3.4343,0.116 4.0657,-1.98516 z m 152.8517,14.59175 c -13.6502,-4.45178 -21.8869,-14.57891 -23.8415,-29.31354 l -0.657,-4.95252 1.222,-5.92027 c 1.3271,-6.42932 3.878,-12.08007 7.7483,-17.16348 l 2.4692,-3.24323 6.4167,-3.1589 6.4166,-3.15889 7.2992,-0.46844 7.2993,-0.46844 5.6041,1.62918 5.6042,1.62918 4.2142,3.24138 4.2141,3.24138 2.8694,5.10945 2.8694,5.10944 1.1943,8.19371 1.1942,8.1937 -1.069,1.69685 -1.069,1.69685 -22.8923,0.5 -22.8924,0.5 0.1,1.25 c 0.055,0.6875 0.1675,1.9237 0.25,2.74712 0.082,0.82341 1.7401,3.25715 3.6835,5.4083 l 3.5335,3.91118 4.9935,1.19792 4.9935,1.19792 3.723,-0.69019 c 2.0477,-0.37961 5.844,-1.83996 8.4364,-3.24522 l 4.7134,-2.55503 2.5227,1.65293 c 1.3874,0.90911 3.2688,2.79176 4.1809,4.18368 l 1.6582,2.53075 -2.7619,2.88275 c -1.519,1.58551 -5.0714,3.89305 -7.8943,5.12785 l -5.1324,2.2451 -8.5,0.31792 -8.5,0.31792 z m 24.714,-41.65625 c 0,-2.78236 -2.2746,-6.95023 -5.3724,-9.844 l -2.5623,-2.39365 -5.0211,-0.48245 -5.021,-0.48247 -3.0162,1.24935 c -1.6589,0.68714 -4.3641,2.78455 -6.0116,4.6609 l -2.9954,3.41157 v 2.96522 2.9652 h 15 15 z m -722.01603,40.63368 -0.98401,-0.98401 0.0153,-43.55001 0.0153,-43.54999 0.83362,-1.3146 0.83362,-1.31459 24.90106,0.31459 24.9011,0.3146 5.21376,2.35755 5.21377,2.35755 4.36881,4.67062 4.36881,4.67061 1.78324,4.66935 1.78323,4.66933 -0.38544,6.8215 -0.38545,6.8215 -2.812,5.74752 -2.812,5.74752 -4.57066,3.48996 c -2.51387,1.91948 -6.86463,4.22332 -9.66837,5.11966 l -5.0977,1.62971 -14.25,0.47501 -14.25,0.47501 v 15.38879 c 0,8.46384 -0.3375,15.4377 -0.75,15.49746 -0.4125,0.0598 -4.46969,0.18758 -9.01599,0.28401 l -8.26599,0.17535 z m 46.77513,-47.57861 c 1.79253,-1.09293 4.15334,-3.45374 5.24626,-5.24626 l 1.98712,-3.25914 0.004,-5.10213 0.004,-5.10211 -2.26993,-3.39789 c -1.24847,-1.86883 -3.83597,-4.18468 -5.75,-5.14633 l -3.48059,-1.74843 -11.75,-0.002 -11.75,-0.002 v 15.5 15.5 l 12.25,-0.004 12.25,-0.004 3.25914,-1.98712 z m 35.26249,47.61622 -1.02163,-1.02162 v -31.1 -31.10001 l 1.2,-1.2 1.2,-1.19999 h 6.6 6.6 l 1.2,1.19999 c 0.66,0.66001 1.2,2.91001 1.2,5 0,4.77056 0.2589,4.74609 5.36442,-0.50711 l 4.18603,-4.3071 4.556,-1.27559 c 2.50581,-0.70159 5.86945,-1.1259 7.47478,-0.94291 l 2.91877,0.33272 v 7.48622 7.48622 l -5.36703,0.77239 c -9.79381,1.40947 -14.3067,4.77271 -16.98002,12.65438 l -1.15295,3.39924 v 16.79175 16.79176 l -1.09111,0.67434 c -0.60012,0.37089 -4.41539,0.76719 -8.47838,0.88065 l -7.38726,0.20629 z m 211.33929,-0.12162 c -0.21039,-0.55 -0.26516,-21.025 -0.12172,-45.5 l 0.2608,-44.5 h 24.60456 24.60456 l 6.81412,3.5 6.81412,3.5 3.31632,4.83741 c 1.82397,2.66058 3.81878,6.70343 4.4329,8.98413 l 1.1166,4.14671 -0.38945,6.11613 -0.38945,6.11613 -2.51674,4.89051 -2.51674,4.89052 -4.4454,3.24437 c -2.44497,1.78442 -5.33449,3.86555 -6.42115,4.62476 l -1.97574,1.38036 9.78747,16.25243 c 5.38312,8.93883 9.59133,16.76184 9.35159,17.38447 l -0.43589,1.13206 -3.87584,-0.10489 c -2.13171,-0.0577 -6.35084,-0.1759 -9.37584,-0.26267 l -5.5,-0.15778 -7,-12.13374 c -3.85,-6.67355 -8.25382,-13.88648 -9.78627,-16.02873 l -2.78627,-3.895 -7.71373,0.2914 -7.71373,0.29142 -0.27539,15.75 c -0.15147,8.6625 -0.60147,15.76536 -1,15.78412 -0.39854,0.0188 -4.26983,0.13127 -8.60288,0.25 l -7.87828,0.21588 z m 42.68344,-46.49581 3.54435,-0.98465 3.437,-3.54606 3.43699,-3.54609 0.0186,-6.2137 0.0186,-6.2137 -2.23031,-3.12671 c -1.22666,-1.7197 -3.80003,-3.8716 -5.71858,-4.78201 l -3.48827,-1.65529 -11.78142,0.282 -11.78132,0.28202 -0.28849,13 c -0.15867,7.14999 -0.0376,14.01249 0.26905,15.25 l 0.55754,2.25 10.23095,-0.006 c 5.62702,-0.003 11.82591,-0.44866 13.77531,-0.99022 z m 244.09658,46.66561 -1.1619,-1.40003 0.2605,-44.38489 0.2605,-44.38488 8.4143,-0.2931 8.4144,-0.2931 0.8203,1.2931 0.8204,1.2931 0.015,43.62756 0.015,43.62755 -1.25,0.95958 c -0.6875,0.52775 -4.4444,1.04858 -8.3486,1.15736 l -7.0986,0.19778 -1.1619,-1.40003 z m 48.9364,-0.0767 c -0.5396,-0.65008 -3.9109,-9.03697 -7.492,-18.63753 -3.581,-9.60056 -8.7876,-23.51772 -11.5701,-30.92704 -2.7826,-7.40931 -4.8384,-14.04681 -4.5686,-14.75 l 0.4906,-1.27852 4.7814,0.0576 c 2.6298,0.0317 6.5478,0.37137 8.7067,0.75483 l 3.9254,0.6972 7.1424,21.72962 c 3.9284,11.95129 7.413,22.00016 7.7437,22.33082 1.0061,1.00616 2.357,-2.37355 9.2427,-23.12451 l 6.6185,-19.94559 1.5048,-1.1496 1.5048,-1.14959 6.9943,0.28096 c 3.8468,0.15454 7.2541,0.54089 7.5718,0.85857 0.5688,0.56883 -22.3108,62.56455 -23.5414,63.78872 -0.3478,0.34598 -4.5567,0.85786 -9.3532,1.13752 l -8.7209,0.50847 -0.9809,-1.18196 z"
         id="path343" />
      <path
         style="fill:#526890"
         d="m 362.61939,599.64368 c -5.42682,-3.49726 -65.95822,-71.03489 -76.4016,-85.24473 -14.71862,-20.02697 -24.24779,-40.40679 -28.4855,-60.92124 l -1.9787,-9.57876 -0.0366,-14.5 -0.0366,-14.5 2.00303,-9.57322 c 9.47582,-45.28873 42.34596,-78.33352 88.14334,-88.61171 l 7.5,-1.6832 17,0.0405 17,0.0405 7.84439,1.70351 c 10.76417,2.33757 22.62546,6.83889 32.15561,12.20294 8.76904,4.93567 20.28129,13.64712 21.20057,16.04272 l 0.58299,1.51925 -10.39178,10.47644 c -5.71548,5.76204 -11.13791,10.88993 -12.04985,11.39532 l -1.65808,0.91889 -4.62412,-3.82115 c -11.5533,-9.54709 -25.47943,-15.32478 -41.25959,-17.11785 l -8.64499,-0.98231 -9.40208,0.97495 -9.40208,0.97494 -7.67549,2.55749 c -4.22153,1.40662 -10.8255,4.40421 -14.6755,6.66131 l -7,4.10381 -8.59009,8.58842 -8.59009,8.58842 -4.03911,7 c -5.40566,9.36829 -8.76731,19.13833 -10.27338,29.85779 l -1.24451,8.85779 0.69145,7.01713 c 3.3401,33.89671 25.81804,60.57898 58.54573,69.49624 l 6.5,1.77105 15,-0.0516 15,-0.0516 9.5,-3.24947 c 26.02444,-8.90167 45.15911,-28.08453 52.01627,-52.1473 l 2.13727,-7.5 0.55115,-11 0.55114,-11 -2.20372,-8.79426 c -1.21205,-4.83685 -3.13829,-10.90701 -4.28054,-13.48924 l -2.0768,-4.69497 12.37852,-11.79059 12.37853,-11.79059 1.50302,0.28946 c 4.27607,0.8235 14.61104,26.21434 17.09661,42.00279 l 1.21734,7.7326 -0.5539,15.2674 -0.5539,15.26739 -2.11763,8.46884 c -6.2237,24.88982 -20.24738,48.4337 -47.07415,79.03117 -16.88232,19.25527 -53.03633,58.85175 -56.56043,61.94595 l -3.47837,3.05405 -5.21521,-0.005 -5.2152,-0.005 -2.70737,-1.74473 z m 14.24548,-42.49473 4.46189,-2.25 2.38828,-4.81678 2.38828,-4.81678 -1.23334,-4.18322 c -2.19219,-7.43539 -7.77163,-11.68322 -15.34568,-11.68322 h -4.40177 l -3.39789,2.26993 c -8.3072,5.54957 -9.12397,16.52808 -1.74238,23.42 5.05177,4.71664 10.33581,5.36143 16.88261,2.06007 z m 320.32204,-57.89026 -6.13985,-0.71442 -4.86015,-2.48627 c -6.23694,-3.19057 -11.69478,-8.87499 -14.39417,-14.99174 l -2.13272,-4.83268 -0.54582,-7.21701 -0.54582,-7.21702 1.69168,-5.81916 c 3.91889,-13.48052 12.74662,-21.27839 26.61748,-23.51222 l 6.2923,-1.01335 7.07846,1.00389 c 3.89315,0.55214 8.97578,1.92236 11.29472,3.04494 l 4.21626,2.04103 4.88025,5.33978 4.88025,5.33977 2.29377,7.13364 2.29378,7.13364 -0.59994,6.42454 -0.59993,6.42453 -2.168,5.03965 -2.16799,5.03964 -5.82587,5.39373 -5.82588,5.39373 -4.79648,1.5153 c -6.09937,1.92691 -13.13872,2.44337 -20.93633,1.53606 z m 15.4463,-14.5833 c 3.95635,-1.86411 7.48708,-6.34542 9.19483,-11.67037 l 1.24882,-3.89392 -0.55341,-5.36204 -0.55341,-5.36204 -2.32164,-4.20533 c -3.97778,-7.20522 -11.54145,-10.80829 -19.53938,-9.30787 l -3.71774,0.69745 -4.16714,4.16714 -4.16714,4.16714 -1.10954,3.9967 c -0.61025,2.19818 -1.10217,6.2467 -1.09316,8.9967 l 0.0164,5 1.84612,4 c 2.30417,4.99246 5.79593,8.26004 10.76515,10.07398 l 3.84481,1.4035 3.5,-0.57156 c 1.925,-0.31438 4.9879,-1.27263 6.80645,-2.12947 z m 527.41979,14.61145 c -10.7787,-1.79508 -20.0234,-8.85464 -24.5739,-18.7655 l -2.1224,-4.62239 -0.015,-10.5 -0.015,-10.5 2.2548,-4.57558 c 1.2401,-2.51656 3.7991,-6.37983 5.6867,-8.58504 l 3.4319,-4.00947 6.1814,-2.77401 6.1813,-2.77401 10.1319,0.41319 10.132,0.41319 4,2.10823 c 5.4346,2.86437 9.9636,7.80107 12.5699,13.70158 l 2.1724,4.91809 0.5198,8.33191 0.5198,8.33191 h -22.0592 c -12.1325,0 -22.7709,0.27314 -23.6409,0.60699 l -1.5818,0.60699 v 2.24297 c 0,1.23364 1.3041,4.04329 2.8981,6.24365 l 2.8981,4.00068 4.1221,1.64936 4.1222,1.64936 h 4.8782 4.8782 l 5.7907,-3.0461 5.7908,-3.04611 4.0039,4.00395 4.004,4.00395 -1.7152,1.89519 c -0.9433,1.04236 -3.8563,3.06057 -6.4732,4.48492 l -4.7582,2.58972 -6.4699,1.04968 c -3.5584,0.57733 -6.9198,1.00048 -7.4698,0.94034 -0.55,-0.0601 -3.3732,-0.50458 -6.2738,-0.98764 z m 20.7245,-40.32844 1.1955,-1.44054 -2.0051,-4.53279 -2.005,-4.53279 -3.3181,-2.02375 c -1.8249,-1.11307 -4.8356,-2.31051 -6.6905,-2.66096 l -3.3726,-0.63718 -4.6035,1.90788 -4.6035,1.90788 -2.3028,3.417 c -1.2664,1.87934 -2.5756,4.50452 -2.9092,5.83372 l -0.6066,2.41674 1.3854,0.87735 c 0.7619,0.48256 7.5177,0.88426 15.0129,0.89268 l 13.6275,0.0153 1.1956,-1.44055 z m -484.45074,39.04006 c -1.65,-0.7272 -4.22795,-2.5614 -5.72877,-4.07599 l -2.72877,-2.7538 -1.52123,0.58376 -1.52123,0.58375 v 3.03139 3.03138 h -7.5 -7.5 v -45.5 -45.5 h 7.44098 7.44099 l 0.78968,1.25 c 0.43432,0.6875 0.65062,7.83915 0.48066,15.89256 l -0.30902,14.64256 1.15238,0.71221 1.15239,0.71221 2.17597,-1.99945 c 1.19678,-1.0997 3.96931,-2.94685 6.16116,-4.10477 l 3.98519,-2.10532 h 7.79693 7.79693 l 3.71788,1.54626 c 9.94802,4.13741 15.93808,11.2999 18.80605,22.48699 l 1.65784,6.46675 -0.56821,6.79044 -0.56822,6.79044 -2.39495,5.20956 c -3.43441,7.4706 -6.94808,11.1704 -13.91442,14.65152 l -6.11965,3.05804 -8.59028,-0.0391 -8.59028,-0.0391 -3,-1.3222 z m 16.99716,-13.89619 3.99717,-2.26378 2.49977,-4.46977 2.49977,-4.46978 -0.0517,-6.63309 -0.0517,-6.63309 -2.50453,-4.86691 -2.50453,-4.86691 -3.30247,-2.22565 c -1.81635,-1.22411 -4.87058,-2.51983 -6.78717,-2.87939 l -3.48471,-0.65373 -4.14019,1.24043 -4.14019,1.24043 -3.15249,3.34261 -3.15249,3.34262 -1.23868,5.16339 -1.23868,5.1634 0.56197,5.44497 c 0.30908,2.99473 1.41888,7.10457 2.46623,9.13294 l 1.90426,3.68799 3.91159,2.23355 3.91159,2.23355 h 5 5 l 3.99716,-2.26377 z m 136.78508,13.23882 -5.21775,-2.05786 -4.32967,-4.20796 c -2.38132,-2.31438 -5.43333,-6.45084 -6.78225,-9.19214 l -2.45257,-4.98418 -0.33238,-10.52035 -0.33238,-10.52036 3.83238,-7.398 3.83238,-7.398 4.81838,-3.30353 c 6.209,-4.25694 10.33367,-5.34733 20.25348,-5.35419 l 8.07186,-0.006 4.56155,1.55428 c 2.50885,0.85485 6.33978,3.07637 8.51318,4.93672 l 3.95163,3.38245 2.76646,6.16449 2.76646,6.16449 0.5401,7.88001 0.54011,7.88 -23.3916,0.26878 -23.39161,0.26921 -0.29562,2.53441 -0.29562,2.53443 2.30369,3.46558 2.30369,3.46558 4.45382,2.25 4.45382,2.25 h 5.18656 5.18657 l 5.67716,-2.98636 5.67716,-2.98636 3.92438,3.15373 c 2.15842,1.73454 3.92439,3.66921 3.92439,4.29926 0,1.5929 -4.8088,5.93061 -9,8.11834 l -3.5,1.82694 -11.5,0.28723 -11.5,0.28724 z m 28.52725,-39.61538 c 0.17022,-1.19527 -0.60223,-3.96034 -1.71655,-6.1446 l -2.02605,-3.97138 -4.57183,-2.21318 -4.57183,-2.21319 -4.6721,0.70063 -4.6721,0.70062 -3.72466,3.72466 c -3.80685,3.80685 -5.53004,7.88653 -4.4833,10.61429 l 0.58677,1.52909 14.77108,-0.27686 14.77108,-0.27684 z m 34.88297,39.75566 c -5.57691,-2.24214 -11.69246,-6.63848 -11.69246,-8.40547 0,-1.514 5.81457,-8.67695 7.04357,-8.67695 0.49388,0 2.96229,1.45507 5.48537,3.2335 l 4.58741,3.23351 7.19189,0.36306 7.1918,0.36306 2.75,-2.54882 2.75,-2.54881 v -2.21901 c 0,-1.22045 -0.7527,-3.05071 -1.6726,-4.06723 l -1.6726,-1.84822 -11.3716,-3.54989 -11.37167,-3.5499 -3.33256,-2.92602 c -1.83291,-1.60931 -3.89217,-4.27705 -4.57614,-5.92831 l -1.24359,-3.00228 0.42082,-5.81772 0.42081,-5.81771 2.35005,-3.30034 2.35005,-3.30034 5.09949,-2.3745 5.0995,-2.37449 8.56854,-0.01 8.5685,-0.01 4.9315,1.46605 c 2.7123,0.80632 6.419,2.71882 8.2371,4.25 l 3.3056,2.78395 -3.1743,4.29377 c -1.7459,2.36157 -3.4584,4.1386 -3.8056,3.94896 -5.3091,-2.89975 -11.5434,-5.16092 -15.2157,-5.51871 l -4.5844,-0.44665 -3.1511,1.6295 -3.15117,1.62951 -0.6659,2.65319 -0.66591,2.65319 2.54488,2.18895 2.5448,2.18896 9.9607,3.19825 c 5.4783,1.75903 11.537,4.2694 13.4637,5.5786 l 3.503,2.38035 1.7511,3.69034 1.7512,3.69035 -0.398,6.25067 -0.398,6.25068 -2.7682,3.62928 c -1.5225,1.9961 -4.6546,4.61543 -6.9602,5.82074 l -4.1921,2.19147 -10.5,0.30693 -10.50004,0.30693 -4.80754,-1.93283 z m 67.58218,0.31712 c -2.324,-0.8524 -6.5114,-3.6051 -9.3053,-6.11708 l -5.0799,-4.56727 -2.6947,-5.1076 -2.6947,-5.1076 v -11 -11 l 2.6636,-5 c 3.1914,-5.9907 8.7783,-11.50834 14.6048,-14.42371 l 4.2685,-2.13576 6.777,-0.85095 6.777,-0.85096 5.6559,0.88693 c 7.471,1.17157 10.1561,2.26577 15.8915,6.47595 l 4.7968,3.52117 3.2824,6.67329 3.2825,6.67328 -0.017,10.01538 -0.017,10.01538 -2.3463,5.22705 -2.3462,5.22705 -4.4611,4.11206 c -2.4536,2.26163 -6.5651,5.06367 -9.1367,6.22675 l -4.6757,2.1147 -10.5,0.27089 -10.5,0.27089 z m 22.6559,-12.86362 c 4.0724,-2.10587 7.8415,-6.97779 9.1533,-11.8314 l 1.1364,-4.20452 -0.5247,-5.1224 c -0.9732,-9.5012 -5.9191,-16.16587 -13.7344,-18.50742 l -3.7682,-1.12896 -3.4847,0.65373 c -5.1016,0.95708 -9.867,4.57345 -12.7078,9.64374 l -2.4996,4.46131 v 7 7 l 2.5024,4.46978 2.5025,4.46977 3.9971,2.26378 3.9972,2.26377 5.2997,0.0165 5.2996,0.0164 z M 538.82676,453.39895 v -45 h 24.3185 24.3185 l 4.97518,1.47746 4.97518,1.47747 4.2463,3.63468 4.24631,3.63468 2.6165,5.13785 2.61651,5.13786 0.0708,7.5 0.0708,7.5 -2.34686,5.24163 -2.34686,5.24166 -4.00804,3.62101 c -2.20443,1.99157 -6.08813,4.55276 -8.63046,5.69153 l -4.6224,2.07048 -15,0.43065 -15,0.43065 -1.25,1.00864 -1.25,1.00864 v 14.87755 14.87756 h -9 -9 v -45 z m 47.17905,-2.78868 3.67905,-2.28674 2.07095,-4.27801 c 2.65961,-5.49402 2.61511,-9.14371 -0.17905,-14.68469 l -2.25,-4.46188 -4,-2 -4,-2 -10.78966,-0.33954 -10.78966,-0.33953 -1.46034,1.21198 -1.46034,1.21197 v 14.17755 14.17756 l 1.25,1.28196 1.25,1.28195 11.5,-0.33292 11.5,-0.33292 z m 34.82095,15.28868 v -32.5 h 8 8 v 4.03138 4.03139 l 1.43016,0.5488 1.43016,0.54881 3.63581,-4.02441 3.63581,-4.02441 3.18403,-1.00199 c 1.75122,-0.55109 4.98403,-1.1371 7.18403,-1.30224 l 4,-0.30026 v 7.49647 7.49646 l -5.21284,0.63625 c -8.95551,1.09305 -14.88492,6.15559 -17.27113,14.74612 l -1.00488,3.61763 -0.006,16.25 -0.005,16.25 h -8.5 -8.5 z m 211,-12.46108 v -45.03892 l 5.75,-0.11491 c 3.1625,-0.0632 14.075,-0.0382 24.25,0.0556 l 18.5,0.17049 4.67052,1.49838 4.67052,1.49838 4.44013,3.90835 4.44013,3.90836 2.30803,5.28767 2.30803,5.28768 0.0508,6.5 0.0508,6.5 -1.34018,3.88072 c -1.69125,4.89729 -7.31866,11.18065 -12.28059,13.71203 l -3.81819,1.9479 v 1.57938 c 0,0.86866 4.275,8.68965 9.5,17.37997 5.225,8.69032 9.5,16.07045 9.5,16.40029 0,0.32984 -4.23614,0.59971 -9.41364,0.59971 h -9.41364 l -9.22905,-15.54119 c -5.07598,-8.54766 -10.07332,-15.99302 -11.10519,-16.54526 l -1.87614,-1.00408 -6.73117,0.29526 -6.73117,0.29527 -0.5,16 -0.5,16 -8.75,0.28893 -8.75,0.28894 z m 45.98342,-2.89037 c 4.31797,-2.31574 6.90635,-5.72595 7.98876,-10.5252 l 0.83941,-3.72185 -0.96035,-3.47809 c -0.52819,-1.91295 -2.27952,-4.98055 -3.89185,-6.81689 l -2.9315,-3.3388 -4.26395,-1.18307 -4.26394,-1.18307 -10,0.2992 -10,0.29922 -0.2787,14.454 c -0.15329,7.94971 -0.0549,15.03722 0.21861,15.75 l 0.49732,1.296 h 11.79699 11.79698 z m 241.01662,2.96494 v -44.8865 l 3.25,-0.49633 c 1.7875,-0.27297 5.6125,-0.26109 8.5,0.0264 l 5.25,0.52273 v 44.86009 44.8601 h -8.5 -8.5 v -44.88651 z m 49,44.52904 c 0,-0.1966 -2.972,-8.1841 -6.6045,-17.75 -9.1144,-24.00195 -17.3955,-46.16838 -17.3955,-46.56319 0,-0.18114 4.0159,-0.32934 8.9242,-0.32934 h 8.9242 l 7.2941,22.53127 7.2941,22.53128 1.4879,-0.28653 1.488,-0.28656 2.5859,-7.99473 c 1.4223,-4.39711 4.7418,-14.40724 7.3767,-22.24473 l 4.7907,-14.25 h 8.5241 8.5241 l -0.6826,1.75 c -1.121,2.87391 -21.6534,57.52033 -22.7318,60.5 l -0.9953,2.75 h -9.4021 c -5.1712,0 -9.4022,-0.16086 -9.4022,-0.35747 z"
         id="path341" />
      <path
         style="fill:#264b8b"
         d="m 365.62209,600.10872 -3.70467,-1.20977 -13.29533,-14.54012 c -57.0837,-62.42818 -65.25812,-72.49798 -77.25969,-95.17367 -6.73934,-12.73325 -10.85014,-24.53264 -13.67872,-39.26258 l -2.11686,-11.02363 0.55904,-14 0.55904,-14 2.69001,-10.5 c 7.94414,-31.00856 27.33066,-56.01725 55.23886,-71.25828 l 8.71299,-4.75829 12.5,-4.18699 12.5,-4.18697 21,-0.0457 21,-0.0457 6.5,1.77011 c 10.63552,2.89632 22.79362,7.69649 30.38012,11.99445 8.34763,4.72909 20.61988,14.26786 20.61988,16.02702 0,1.50565 -21.11093,22.69036 -22.61134,22.69036 -0.59328,0 -1.93593,-0.95369 -2.98367,-2.11928 -6.36112,-7.07668 -22.86448,-14.98613 -36.40499,-17.44758 -27.36986,-4.97538 -51.92692,2.15067 -71.48531,20.74387 l -8.07554,7.67703 -5.24985,8.80653 -5.24985,8.80654 -2.57985,8.01645 -2.57985,8.01644 -0.51925,11.55846 -0.51926,11.55846 1.70697,8.44154 c 5.49145,27.15717 23.76446,48.19982 50.36371,57.99736 l 8.68808,3.20016 15.53458,0.49766 15.53458,0.49766 8.42981,-2.13172 c 24.07159,-6.08719 42.18765,-20.5996 53.29189,-42.69105 l 3.55447,-7.07146 1.57733,-7.63638 1.57734,-7.63637 v -11.12555 -11.12554 l -2.02718,-7.93969 c -1.11495,-4.36683 -2.80012,-9.56056 -3.74483,-11.54162 l -1.71764,-3.60194 11.88561,-11.4212 11.88561,-11.4212 1.53503,0.29621 1.53503,0.29621 3.76841,6.96266 c 10.95737,20.2452 15.19813,46.62761 11.3383,70.53734 -3.77227,23.3674 -13.88978,44.39516 -33.71926,70.0805 -11.40902,14.77823 -67.43104,77.22452 -72.73908,81.08037 -3.37703,2.45313 -7.74003,3.00684 -12.20467,1.5489 z m 13.46169,-43.23845 c 4.65821,-3.16534 6.74298,-7.11469 6.74298,-12.77378 v -4.40178 l -2.25,-3.30594 c -1.2375,-1.81826 -3.49964,-4.23173 -5.02698,-5.36327 l -2.77697,-2.05734 -5.89655,-0.0346 -5.89655,-0.0346 -2.82648,2.10453 c -1.55456,1.15749 -3.70051,3.59724 -4.76878,5.42166 l -1.94231,3.31713 v 4.83227 4.83228 l 2.03426,2.74607 c 1.11884,1.51032 3.52193,3.75856 5.34019,4.99605 l 3.30594,2.25 h 5.11998 5.11998 z m 313.36697,-59.05069 c -6.34931,-2.02438 -11.40994,-5.27387 -15.54139,-9.97933 -4.08552,-4.65316 -5.56625,-8.07913 -7.06567,-16.34791 l -1.15913,-6.39225 1.6975,-6.9268 1.6975,-6.92681 3.1236,-4.6405 c 6.03705,-8.96883 13.25062,-12.8626 25.76242,-13.90615 l 6.63882,-0.55372 5.36118,1.26219 c 10.60413,2.4965 18.69016,9.05432 23.19954,18.81498 l 2.16014,4.67567 7.5e-4,9.5 7.5e-4,9.5 -2.31252,4.69487 c -1.27189,2.58218 -4.19689,6.58974 -6.5,8.90568 l -4.18748,4.21079 -5.5,2.54095 -5.5,2.54096 -8.5,0.29101 -8.5,0.29101 z m 19.95461,-12.31696 c 4.66333,-2.11798 7.79359,-5.67137 9.46956,-10.74958 l 1.16201,-3.52096 -0.37133,-7.35354 -0.37134,-7.35355 -3.00924,-4.31302 -3.00924,-4.31302 -3.47451,-1.74845 -3.47451,-1.74844 -5.29966,-0.002 -5.29966,-0.002 -2.8019,1.44893 c -1.54104,0.79689 -4.18117,3.01982 -5.86694,4.93981 l -3.06506,3.4909 -1.16808,5.62666 -1.16809,5.62663 0.67505,4.90823 0.67506,4.90823 2.89208,3.99241 c 1.59065,2.19582 4.58748,4.88732 6.65964,5.98111 l 3.76756,1.9887 4.5,0.0222 4.5,0.0222 4.0786,-1.85241 z m 66.1052,12.50826 c -3.82147,-1.42373 -7.48329,-4.01696 -8.98349,-6.36193 -0.43983,-0.6875 -1.65017,-1.25 -2.68963,-1.25 h -1.88995 l -0.31036,3.75 -0.31037,3.75 -7,-0.005 -7,-0.005 -0.26032,-44.78701 -0.26033,-44.78701 7.76033,0.29224 7.76032,0.29226 0.27477,16.25 0.27477,16.25 h 1.32024 c 0.72614,0 2.17749,-0.94789 3.22523,-2.10641 1.04775,-1.15852 3.70499,-3.06324 5.90499,-4.23269 l 4,-2.12628 8,-0.0173 8,-0.0173 4.8583,2.39163 c 6.49571,3.1977 11.35799,8.24815 14.46218,15.02189 l 2.5601,5.58648 0.42679,8.09136 0.42678,8.09137 -1.59589,5.40863 -1.5959,5.40864 -3.79971,4.98224 -3.79972,4.98224 -5.70331,2.91678 -5.70331,2.91678 -7.26816,0.36783 -7.26815,0.36782 -3.8162,-1.42176 z m 16.17047,-13.89679 3.90343,-2.58317 2.12115,-4.38171 2.12115,-4.38171 v -6.48793 -6.48793 l -2.58605,-5.18952 -2.58605,-5.18953 -3.16395,-2.25683 -3.16395,-2.25681 h -7.17667 -7.17667 l -2.82333,2.05196 c -1.55283,1.12859 -3.88743,4.17409 -5.18799,6.76777 l -2.36466,4.7158 -0.0448,7.23223 -0.0448,7.23224 1.99698,4.5 c 2.31167,5.20912 3.87865,6.70039 9.06253,8.62472 l 3.75948,1.39556 4.72542,-0.36098 4.72541,-0.36099 3.90344,-2.58317 z m 138.55031,13.68281 c -2.80248,-0.86245 -7.30248,-3.23425 -10,-5.27066 l -4.90458,-3.70258 -3.35413,-6.57501 -3.35412,-6.575 -0.51807,-6.45398 -0.51806,-6.45398 1.15935,-5.43338 c 0.63765,-2.98835 2.60513,-7.84399 4.37219,-10.79029 l 3.21284,-5.35693 4.05878,-2.80955 c 2.23232,-1.54525 6.70882,-3.57994 9.94778,-4.52153 l 5.88901,-1.71198 6.66819,0.55904 c 7.41447,0.6216 12.67215,2.49632 17.65078,6.29371 l 3.32219,2.53396 3.00959,5.96195 3.00958,5.96196 0.96173,7.58534 c 0.52895,4.17193 0.71481,7.98485 0.41303,8.47314 l -0.54869,0.88782 h -23.44099 -23.44098 v 2.03984 c 0,1.1219 0.90889,3.82141 2.01975,5.99888 l 2.01976,3.95905 4.04403,2.67621 4.04403,2.67621 6.68622,0.0749 6.68621,0.0749 3,-1.56604 c 1.65,-0.86132 3.95098,-2.16864 5.11329,-2.90516 l 2.11328,-1.33914 3.63672,2.77386 c 2.00019,1.52562 3.63671,3.35545 3.63671,4.06628 0,1.741 -5.40078,6.18062 -9.87072,8.11405 l -3.62928,1.56982 -9,0.37618 -9,0.37619 -5.09542,-1.56809 z m 24.76772,-37.49017 2.04082,-1.09221 -0.60862,-3.04309 c -0.33474,-1.67369 -1.51479,-4.50929 -2.62232,-6.30133 l -2.01371,-3.25824 -3.38536,-1.60646 -3.38537,-1.60646 h -4.66461 c -5.01791,0 -7.68876,1.02765 -11.37045,4.37496 -2.53547,2.30521 -5.16268,7.75991 -5.16268,10.71894 v 1.84967 l 13.75,0.30887 c 7.5625,0.16989 14.11708,0.40758 14.56574,0.52822 0.44866,0.12064 1.73411,-0.27215 2.85656,-0.87287 z m 38.14199,37.235 c -6.44237,-2.22617 -13.31429,-6.68615 -13.31429,-8.6412 0,-0.80852 1.32435,-2.93964 2.943,-4.73581 l 2.943,-3.26577 1.807,1.27103 c 0.99385,0.69907 4.057,2.38216 6.807,3.74023 l 5.00004,2.4692 5,0.006 5,0.006 3.2232,-1.96524 3.2231,-1.96524 0.6119,-2.43787 0.6119,-2.43788 -1.1185,-2.08987 c -1.3684,-2.55687 -7.1299,-5.59304 -13.6672,-7.2023 -2.6864,-0.6613 -7.18388,-2.20536 -9.99431,-3.43124 l -5.10986,-2.22886 -2.68792,-3.52405 c -1.47836,-1.93822 -2.93468,-5.04463 -3.23627,-6.90312 l -0.54835,-3.3791 1.19541,-4.43943 1.19542,-4.43943 3.46083,-3.26398 3.46083,-3.26399 5.68989,-1.66797 5.68993,-1.66799 8.6309,1.07641 8.6308,1.07642 3.936,2.00801 c 2.1649,1.10442 4.4543,2.63239 5.0876,3.39549 l 1.1515,1.38747 -2.5045,3.68563 c -2.9754,4.37871 -2.3144,4.28578 -8.4323,1.18562 l -4.9335,-2.5 h -6.4225 -6.4224 l -2.0239,1.75 c -1.1132,0.9625 -2.29593,2.69179 -2.62836,3.84286 l -0.60441,2.09288 2.08326,2.64845 2.08331,2.64845 9.6843,3.02599 c 5.3263,1.66429 11.4842,4.0307 13.6842,5.25868 l 4,2.23269 2.3466,4.73022 2.3465,4.73021 -0.6889,5.00892 -0.6889,5.00895 -2.1814,3.23704 c -5.8973,8.75098 -21.5039,12.35591 -34.31965,7.92743 z m 69.42025,0.83299 c -12.1362,-3.06493 -21.1014,-12.7923 -23.8085,-25.83241 l -1.1461,-5.5207 0.6192,-4.56133 c 0.3406,-2.50874 1.328,-6.70403 2.1943,-9.32287 l 1.575,-4.76155 4.8957,-5.35665 4.8957,-5.35667 5.1078,-2.19734 5.1079,-2.19733 6.7723,-0.56777 6.7724,-0.56777 5.3899,1.26906 c 7.2947,1.71757 12.2278,4.33546 16.8166,8.92425 l 3.8437,3.84371 2.2719,5.86479 2.2719,5.86481 0.092,7.5 0.092,7.5 -1.9939,5.5 -1.9939,5.5 -5.505,5.5741 -5.5049,5.57411 -5,1.74628 -5,1.74627 -7.5,0.39299 c -4.125,0.21614 -9.1945,-0.035 -11.2655,-0.55798 z m 17.8816,-12.88889 4.1161,-1.86919 2.8724,-3.76592 2.8724,-3.76594 0.3779,-7.48284 0.3778,-7.48284 -1.143,-3.81502 c -1.3661,-4.55967 -5.2614,-9.42544 -9.1592,-11.44106 l -2.8312,-1.46407 h -5.8996 -5.8996 l -4.2266,3.06169 -4.2265,3.0617 -1.9016,4.1883 -1.9015,4.18831 -0.022,6.93427 -0.022,6.93428 2.0858,4.30875 c 4.3717,9.03077 15.0791,12.70153 24.5303,8.40958 z m 154.1184,12.88218 c -6.3623,-1.59543 -11.2548,-4.64166 -16.0872,-10.01643 l -4.6275,-5.14694 -1.4411,-4.8527 c -0.7926,-2.66898 -1.7401,-6.84659 -2.1056,-9.28358 l -0.6644,-4.43088 1.2114,-5.86927 c 2.2798,-11.04566 7.714,-18.62429 16.4024,-22.87513 l 5.2856,-2.58603 7.023,-0.58879 7.0231,-0.58879 6.9694,2.11688 6.9693,2.11688 4.595,4.91237 4.5949,4.91236 1.6366,5.62957 c 0.9001,3.09626 1.7139,8.43123 1.8086,11.85549 l 0.172,6.22592 -22.5,0.248 c -12.375,0.1364 -23.0625,0.45977 -23.75,0.71861 -2.035,0.76617 -1.4429,3.83759 1.693,8.78245 l 2.943,4.64062 3.1695,1.63903 c 1.7433,0.90146 5.5919,1.88903 8.5526,2.1946 l 5.3831,0.55559 6.6188,-3.25842 6.6187,-3.25841 3.6357,3.67861 3.6356,3.6786 -3,2.53121 c -1.65,1.39216 -5.025,3.46971 -7.5,4.61678 l -4.5,2.08557 -8,0.28024 c -4.4,0.15413 -9.6945,-0.14468 -11.7655,-0.66401 z m 22.6837,-37.57605 1.5818,-0.60699 v -3.16088 -3.16088 l -2.4389,-3.58921 -2.439,-3.58921 -3.699,-1.75531 -3.699,-1.75531 -5.2037,0.43152 -5.2037,0.43154 -3.0725,2.18783 c -1.6899,1.20331 -4.021,4.14718 -5.1803,6.54191 l -2.1078,4.35406 0.6184,1.61136 0.6183,1.61137 13.6536,0.30825 c 7.5095,0.16954 13.9543,0.40694 14.3218,0.52758 0.3675,0.12064 1.38,-0.0538 2.25,-0.38763 z m -712.91824,36.60699 -8,-0.5 v -44 -44 l 21.5,-0.31089 21.5,-0.31089 5.5,1.17926 c 14.46354,3.10114 23,13.33864 23,27.58315 v 5.28434 l -2.03694,5.4442 -2.03693,5.4442 -4.47074,4.12098 c -7.22076,6.65587 -12.12135,8.06921 -30.95539,8.92759 l -14,0.63806 -0.27804,14.97804 c -0.15292,8.23792 -0.60292,15.21292 -1,15.5 -0.39708,0.28708 -4.32196,0.29695 -8.72196,0.022 z m 38.52638,-46.01346 3.9467,-2.01347 2.01346,-3.9467 2.01346,-3.9467 -0.002,-4.78984 -0.002,-4.78984 -1.74844,-3.48493 -1.74845,-3.48493 -4,-2.26453 -4,-2.26453 -12.5,0.24946 -12.5,0.24946 -0.27791,14.95607 c -0.15286,8.22583 -0.0545,15.53833 0.21861,16.25 l 0.49653,1.29393 h 12.07122 12.07123 l 3.9467,-2.01346 z m 35.46725,45.85746 c -0.28778,-0.74993 -0.40407,-15.24414 -0.25843,-32.20934 l 0.2648,-30.84582 7.5,-0.004 7.5,-0.004 0.30479,4.61001 0.30479,4.61001 h 1.44781 c 0.7963,0 3.05025,-1.7737 5.00879,-3.94156 l 3.56097,-3.94158 4.29128,-1.63886 c 2.36021,-0.90137 5.5941,-1.49016 7.18643,-1.30843 l 2.89514,0.32957 -0.0158,6.452 -0.0158,6.45201 -5.98416,1.10306 c -9.5926,1.7682 -14.34471,5.71258 -16.61197,13.78839 l -1.18041,4.20453 -0.0959,16.2497 -0.0959,16.24969 -6.16821,3.1e-4 c -3.39252,1.7e-4 -6.87623,0.27199 -7.74157,0.60406 l -1.57336,0.60375 -0.52323,-1.36351 z m 497.93481,-0.17035 c -0.2476,-0.64551 -0.3328,-20.74866 -0.1893,-44.67365 l 0.2609,-43.5 h 8 8 v 44.39666 44.39666 l -7.8107,0.27698 -7.8107,0.27698 z m 49.107,0.1801 c -0.2649,-0.74456 -3.8951,-10.35375 -8.0673,-21.35375 -12.8576,-33.89935 -15.643,-41.65842 -15.1366,-42.16486 0.2686,-0.26857 4.0245,-0.17984 8.3464,0.19716 l 7.858,0.68547 7.2566,22.39111 7.2566,22.39112 h 1.7504 1.7504 l 7.4501,-22.5 7.4501,-22.5 h 7.8583 7.8583 l -0.3334,0.8697 c -0.1833,0.47834 -5.5083,14.65206 -11.8333,31.49716 l -11.5,30.62746 -7.1682,0.003 c -3.9425,0.002 -7.8762,0.27453 -8.7416,0.60659 l -1.5733,0.60376 -0.4815,-1.35376 z M 832.82676,452.80809 v -44.59084 l 24.25,0.36668 24.25,0.3667 5.28768,2.36351 5.28767,2.36351 3.88722,4.41612 3.88723,4.41612 1.5751,4.62267 c 0.8663,2.54246 1.5707,7.13001 1.56533,10.19452 l -0.01,5.57187 -2.36375,5 c -2.52815,5.34774 -5.85472,8.83009 -11.86671,12.4224 -2.0625,1.2324 -3.75,2.87059 -3.75,3.64042 0,0.76985 3.21965,6.69564 7.15479,13.16845 3.93513,6.4728 8.2486,13.68123 9.58549,16.01873 l 2.43071,4.25 h -8.92437 -8.92436 l -9.41113,-15.75 -9.41113,-15.75 -7.5,-0.5597 -7.5,-0.55968 -1.75,0.84487 -1.75,0.84488 v 15.46481 15.46482 h -8 -8 V 452.8081 Z m 45.89547,-1.90914 c 1.86751,-1.10001 4.34251,-3.27051 5.5,-4.82334 l 2.10453,-2.82332 v -6.35334 -6.35334 l -2.06179,-2.76155 c -1.13398,-1.51885 -3.30175,-3.68935 -4.81726,-4.82333 l -2.75548,-2.06178 -12.00937,-0.5 c -6.60516,-0.275 -12.87489,-0.17701 -13.93274,0.21777 l -1.92336,0.71777 v 14.83223 14.83222 l 1.25,1.28062 1.25,1.28062 12,-0.33062 12,-0.33062 z"
         id="path339" />
    </g>
  </g>
</svg>
