<?xml version="1.0" encoding="UTF-8" standalone="no"?>
<!-- Created with Inkscape (http://www.inkscape.org/) -->

<svg
   version="1.1"
   id="svg514"
   width="1024"
   height="1024"
   viewBox="210 90 642 816"
   sodipodi:docname="new_favicon_logo.svg"
   inkscape:version="1.2.2 (b0a8486541, 2022-12-01)"
   xmlns:inkscape="http://www.inkscape.org/namespaces/inkscape"
   xmlns:sodipodi="http://sodipodi.sourceforge.net/DTD/sodipodi-0.dtd"
   xmlns="http://www.w3.org/2000/svg"
   xmlns:svg="http://www.w3.org/2000/svg">
  <defs
     id="defs518" />
  <sodipodi:namedview
     id="namedview516"
     pagecolor="#ffffff"
     bordercolor="#000000"
     borderopacity="0.25"
     inkscape:showpageshadow="2"
     inkscape:pageopacity="0.0"
     inkscape:pagecheckerboard="0"
     inkscape:deskcolor="#d1d1d1"
     showgrid="false"
     inkscape:zoom="0.84765625"
     inkscape:cx="535.59447"
     inkscape:cy="492.53456"
     inkscape:window-width="1920"
     inkscape:window-height="1043"
     inkscape:window-x="0"
     inkscape:window-y="0"
     inkscape:window-maximized="1"
     inkscape:current-layer="g520" />
  <g
     inkscape:groupmode="layer"
     inkscape:label="Image"
     id="g520">
    <g
       id="g524"
       transform="translate(19.210108,-10.523402)">
      <path
         style="fill:#b6d0cd"
         d="M 505.15412,895.62807 C 501.67624,893.69918 468.44229,856.99713 429.42836,812 367.44262,740.50809 330.25659,694.47444 288.87101,638 279.63874,625.40172 258.63235,594.05731 252.64338,583.9434 235.17307,554.44036 221.80803,515.74408 215.30255,475.82916 L 212.64116,459.5 l -0.0216,-27 -0.0216,-27 1.73438,-12.5 C 224.30298,321.14046 253.94122,260.29552 303,210.97253 355.70369,157.985 419.25764,129.1615 494.95277,123.91657 L 512,122.73537 l 17.25,1.19173 c 50.40158,3.48205 93.17313,16.7411 135.18552,41.90709 12.31999,7.37985 32.57619,22.24587 39.73011,29.15792 l 4.66563,4.50789 0.71865,3.87254 0.71865,3.87255 -1.88428,4.29919 -1.88428,4.29919 -21.9421,22.56892 -21.9421,22.56892 -4.26476,1.62873 -4.26476,1.62873 -3.53531,-0.66323 -3.5353,-0.66323 -8.27077,-6.31076 C 582.95072,214.02951 512.88544,201.9569 447.32585,223.61906 371.68077,248.61365 316.23069,315.2477 302.28653,397.91198 L 300.5005,408.5 l 0.0319,23.5 0.0319,23.5 2.19316,12 C 319.6633,560.00131 392.88235,631.31677 484.5,644.51756 l 12,1.72903 16,-0.0403 16,-0.0403 11.5228,-1.5674 c 83.42584,-11.34819 155.93069,-76.5986 177.4699,-159.71333 l 3.43946,-13.27205 1.66267,-13.0566 1.66267,-13.05661 -0.54778,-20 -0.54779,-20 -1.56297,-9.11263 c -3.3586,-19.5817 -8.92879,-37.5552 -17.99018,-58.04937 -3.97461,-8.98941 -4.31983,-11.70045 -2.15093,-16.89137 l 1.45786,-3.48914 23.67583,-23.94531 23.67583,-23.94532 3.43149,-1.13249 3.4315,-1.1325 3.65105,0.68495 c 2.00809,0.37671 4.87594,1.55713 6.37302,2.62315 l 2.72196,1.9382 6.44883,12.72592 c 47.24218,93.22621 47.40307,197.85438 0.44366,288.50407 -27.02236,52.16352 -125.87171,176.37167 -243.17583,305.56013 l -13.92729,15.33829 -2.39798,0.91171 c -3.4028,1.29374 -9.3592,1.06744 -12.11366,-0.46022 z M 476.76404,552.06253 C 471.13911,550.24909 467.07271,546.66022 450.5,528.8828 441.15,518.85313 423.59491,500.03895 411.4887,487.07351 362.19423,434.28046 364,436.45439 364,429.90278 c 0,-1.63186 0.6649,-4.55835 1.47756,-6.50331 l 1.47755,-3.53629 13.06533,-13.68159 c 7.18593,-7.52487 14.50151,-14.46909 16.25684,-15.43159 L 399.4688,389 h 3.7005 c 2.03527,0 4.84336,0.43451 6.24018,0.96559 2.2925,0.8716 34.04384,29.9608 60.27794,55.22401 5.60308,5.39572 10.82095,9.8104 11.59526,9.8104 1.31599,0 17.33491,-16.29007 77.68095,-78.99581 67.92249,-70.57844 64.9183,-67.62604 70.28149,-69.07019 L 633,305.92291 l 3.75,1.01476 3.75,1.01476 12.64182,12.77379 c 14.28883,14.43799 14.87173,15.30148 14.82274,21.95804 -0.0439,5.97333 -0.66619,7.09022 -10.02944,18.00245 -4.15924,4.84731 -22.35531,26.13829 -40.43572,47.31329 -18.0804,21.175 -36.95179,43.26641 -41.93643,49.09202 -4.98463,5.82561 -11.31297,13.23195 -14.06297,16.45854 -15.64386,18.355 -48.17606,56.42044 -55.37651,64.79523 l -8.37652,9.74265 -4.00109,2.0412 -4.00109,2.04121 -5.12239,0.38687 c -2.81732,0.21278 -6.35358,-0.0101 -7.85836,-0.49519 z"
         id="path538" />
      <path
         style="fill:#929eaf"
         d="M 505.27289,894.47859 C 497.89816,889.31312 420.99984,801.9013 372.89319,744 321.34995,681.96241 277.01435,622.37947 253.72085,583.84341 235.71717,554.05868 221.58721,511.95911 215.34355,469.5 l -1.76461,-12 0.0198,-26 0.0198,-26 1.69579,-12.20865 C 225.89295,317.13099 259.11554,252.40706 313.5,202.0068 363.15838,155.9864 424.42525,129.8921 494.43308,124.94525 l 16.69329,-1.17958 17.66654,1.16955 17.66655,1.16954 14.52027,2.44701 c 37.61635,6.33923 73.67465,19.93934 106.02027,39.98765 11.06004,6.85518 30.66951,21.42598 36.64464,27.22877 l 4.14464,4.02509 0.6819,4.03612 0.6819,4.03612 -1.96122,4.31724 -1.96121,4.31724 -22.86532,22.64484 -22.86533,22.64484 -3.24654,0.68385 -3.24654,0.68386 -3.5675,-1.17738 c -1.96213,-0.64756 -7.32299,-4.0429 -11.91303,-7.54518 C 608.54582,232.32209 573.71953,218.26486 536,213.45489 l -13.5,-1.72152 -16.5,0.57697 -16.5,0.57697 -9.11263,1.53835 c -36.01661,6.08015 -64.61833,18.3348 -94.19842,40.36012 l -11.31105,8.4222 -10.19755,10.14601 c -32.41952,32.25565 -54.49781,74.86219 -62.84242,121.27289 l -2.31458,12.87312 0.0348,24 0.0348,24 1.73859,9.95705 c 4.10004,23.48131 9.76225,40.71358 20.37011,61.99405 31.5168,63.226 93.84709,108.41678 162.90447,118.10919 l 11.89391,1.66934 16,-0.0319 16,-0.0319 11.5,-1.57989 C 633.86073,632.6913 711.46792,553.78826 723.54088,458.98046 L 725.2575,445.5 l -0.54778,-20 -0.54779,-20 -1.6092,-9.5 c -3.22215,-19.02219 -9.1153,-38.16091 -17.43801,-56.63208 -4.45669,-9.89103 -4.88425,-12.71151 -2.67558,-17.65004 L 703.87828,318.5 727.68914,294.30833 751.5,270.11666 l 3.68482,-0.65739 3.68482,-0.6574 3.40024,1.12218 c 4.80942,1.58726 7.86249,5.24794 13.04409,15.64013 16.24057,32.57198 27.0412,66.40224 32.38434,101.43582 l 2.669,17.5 0.0148,27 0.0148,27 -2.24175,14.5 c -5.72771,37.04789 -15.85769,68.93511 -31.86036,100.29024 l -5.507,10.79024 -15.17967,22.70976 C 715.00122,667.5407 649.88364,748.12337 559.07413,850 c -42.62685,47.82186 -40.72979,46 -47.89868,46 h -3.73044 z M 472.5,548.56025 l -4,-2.42084 -17.09609,-18.3197 c -9.40285,-10.07584 -26.95285,-28.86896 -39,-41.7625 -12.04715,-12.89353 -27.13692,-29.14667 -33.53282,-36.11807 l -11.62891,-12.67529 -1.17716,-3.56684 -1.17716,-3.56683 1.11371,-4.13601 1.11371,-4.136 13.6826,-14.43813 13.68259,-14.43812 4.29268,-1.63939 4.29267,-1.63938 4.01567,1.20312 4.01567,1.20312 23.70142,22.14476 c 13.03578,12.17962 28.57118,26.78001 34.52311,32.44531 5.95193,5.6653 11.41069,10.30054 12.13057,10.30054 0.71989,0 17.45013,-16.73746 37.17831,-37.19435 19.72819,-20.45689 51.30647,-53.19439 70.17396,-72.75 18.8675,-19.55561 35.7425,-36.37084 37.5,-37.36718 l 3.19547,-1.81154 4.89508,0.42868 4.89508,0.42869 13.26956,13.38285 13.26956,13.38285 0.71475,3.84646 0.71474,3.84646 -1.12932,3.65354 -1.12932,3.65354 -7.81072,9 c -4.29589,4.95 -22.6024,26.325 -40.68111,47.5 -18.07872,21.175 -36.52836,42.775 -40.99921,48 -4.47085,5.225 -18.68101,21.875 -31.57812,37 -25.69782,30.13694 -27.43999,32.17344 -39.2608,45.89359 l -8.09319,9.39358 -4.03849,1.83446 -4.03849,1.83445 -6,0.0125 -6,0.0125 z"
         id="path536" />
      <path
         style="fill:#69a294"
         d="m 507.62479,894.52265 c -2.13136,-0.75519 -4.189,-1.74422 -4.57254,-2.19786 C 502.66871,891.87116 495.84029,884.3 487.87797,875.5 385.60036,762.46221 301.35085,657.88231 259.6832,592.23918 237.67092,557.56108 222.93906,515.97864 215.84478,468.5 l -1.34478,-9 0.0365,-28.5 0.0365,-28.5 1.77629,-12 C 227.3174,316.4029 260.04499,252.86296 312.35296,204.11069 358.73997,160.8769 412.46268,135.81366 478,126.83142 l 9.5,-1.30203 25.5,0.0613 25.5,0.0613 13.51255,2.0917 c 55.56954,8.60201 101.81273,28.5351 143.20777,61.72959 l 10.72031,8.59657 1.15907,3.86864 1.15907,3.86863 -0.71112,3.84646 -0.71113,3.84646 -23.66826,23.69468 -23.66826,23.69467 -2.75657,0.66538 c -1.51612,0.36596 -4.30238,0.37539 -6.1917,0.0209 l -3.43512,-0.64443 -7.04929,-5.51568 C 606.33064,229.01843 564.1419,213.58498 519.55101,211.32839 L 507.5,210.71853 l -12,1.20268 c -65.12729,6.52729 -120.65749,38.81883 -156.31258,90.8978 -26.02534,38.01346 -39.0514,76.49549 -40.85016,120.68099 l -0.61065,15 1.17138,12 c 6.50456,66.6349 41.42269,124.59994 97.60201,162.02193 29.55533,19.68731 59.21286,30.53245 94.5,34.55669 l 10.5,1.19745 18,-0.63133 18,-0.63133 8,-1.40353 C 633.71633,630.13308 705.43406,559.5425 722.38997,471.5 c 8.14384,-42.28638 2.27101,-90.77431 -15.75851,-130.10715 L 702,331.28894 v -3.71021 c 0,-2.04062 0.52235,-4.69313 1.16078,-5.89447 0.63843,-1.20134 11.46729,-12.82912 24.06413,-25.8395 l 22.90334,-23.65524 2.95475,-1.2239 2.95475,-1.2239 4.07942,0.54717 4.07942,0.54716 2.50594,2.33198 c 3.29744,3.06852 13.63668,23.7931 20.62002,41.33197 9.75641,24.50355 15.61892,46.21835 19.70836,73 l 2.13774,14 0.5299,23.5 0.52989,23.5 -1.67594,14.5 c -4.35923,37.71532 -13.51837,69.56074 -29.52739,102.66374 l -7.81698,16.16374 -8.28827,12.83626 c -43.14749,66.8237 -124.31902,166.77619 -232.32774,286.08229 l -11.99173,13.24603 -2.0502,0.58332 c -1.1276,0.32082 -2.72519,0.74914 -3.55019,0.95182 -0.825,0.20268 -3.24384,-0.24937 -5.37521,-1.00455 z M 474.5,549.11747 l -4,-1.83861 -9.10662,-9.38943 C 456.38474,532.72524 439.71917,515 424.35878,498.5 361.82402,431.3257 366,436.2913 366,429.10634 v -3.76345 l 2.93755,-4.42145 c 1.61566,-2.43179 8.79779,-10.21432 15.96031,-17.2945 l 13.02276,-12.87306 5.97043,0.43186 5.97043,0.43186 4.81926,4.36697 c 8.71091,7.8934 47.63994,44.31408 56.38433,52.75127 l 8.56506,8.26416 1.93494,-0.0178 1.93493,-0.0178 39,-40.59222 c 21.45,-22.32573 53.18885,-55.26678 70.53079,-73.20234 l 31.53078,-32.61012 3.67626,-1.39919 3.67627,-1.3992 3.78549,0.71017 3.78549,0.71016 11.28829,11.15918 c 6.20857,6.13756 12.17442,12.56231 13.25746,14.27722 L 666,337.7361 v 4.90946 4.90946 l -1.68574,2.4725 c -1.86794,2.73976 -5.10375,6.56875 -40.98024,48.49254 -22.25077,26.00134 -43.16714,50.50573 -76.78047,89.95147 -6.07945,7.13433 -19.51559,22.88433 -29.85809,35 l -18.80454,22.0285 -5.05965,2.75 -5.05965,2.75 -4.63581,-0.022 -4.63581,-0.022 -4,-1.83861 z"
         id="path534" />
      <path
         style="fill:#607089"
         d="M 504.66504,892.95116 C 501.13011,890.17059 467.36444,852.88342 440.41469,822 385.90502,759.53394 343.71749,708.24632 310.8603,664.5 287.23132,633.04019 284.7017,629.51705 271.37013,609.5 253.7372,583.02454 250.65662,577.78131 242.85177,560.961 l -7.08632,-15.27181 -5.79553,-17.59459 c -6.38386,-19.38073 -10.03945,-34.57672 -13.2507,-55.08205 L 214.60308,459.5 l -0.027,-28 -0.027,-28 1.75541,-11.5 c 9.0133,-59.04802 28.40755,-106.09599 61.91485,-150.19759 C 331.77047,171.31956 411.76123,129.53041 501,125.4163 l 14.5,-0.66848 15.55309,1.14282 c 50.12979,3.68349 94.29636,17.86614 135.94691,43.65491 10.73268,6.64536 30.626,21.39557 36.20563,26.84523 l 3.70564,3.61932 0.64343,3.42977 0.64343,3.42977 -1.21965,3.81518 -1.21965,3.81518 -22.59386,22.74322 -22.59386,22.74322 -3.37508,1.11388 -3.37507,1.11387 -3.05609,-0.61122 -3.05609,-0.61121 -10.60439,-7.84133 C 601.74219,227.00215 563.53861,213.36325 520,211.34348 l -13.5,-0.62627 -12,1.20248 c -6.6,0.66136 -17.51685,2.32218 -24.25967,3.69071 C 382.90891,233.33522 315.57296,305.80685 300.31114,398.5 l -1.81114,11 0.015,22 0.015,22 1.83199,11 c 7.55085,45.33834 27.02777,84.03555 59.00803,117.23859 35.57712,36.93743 81.05101,59.69039 130.56245,65.32721 l 10.43248,1.18772 18.56752,-0.52418 18.56752,-0.52418 9,-1.62077 C 635.52768,629.55173 707.28526,557.41431 723.14929,468 l 2.04035,-11.5 0.53403,-17 0.53404,-17 -1.16678,-12 c -2.44552,-25.15154 -10.32875,-53.87163 -20.23544,-73.72148 L 702,331.05703 l 0.0451,-3.27851 c 0.0791,-5.75176 1.99805,-8.15451 26.05587,-32.62559 l 23.60098,-24.00639 3.57085,-0.66989 c 8.75858,-1.64312 12.14034,1.23532 20.00004,17.02335 15.81619,31.77052 26.33144,65.34484 31.78912,101.5 l 2.03784,13.5 0.58601,20 0.58601,20 -1.22062,14 c -3.52074,40.38128 -14.98141,80.0036 -33.81369,116.90211 -23.70014,46.43624 -106.79431,152.41469 -213.7263,272.58687 -36.77316,41.32638 -40.60004,45.50162 -43.31289,47.25576 l -2.69832,1.74473 -4.11514,0.005 -4.11514,0.005 -2.60468,-2.04884 z M 474.5,548.08228 l -4,-2.04457 -16.63127,-17.76885 c -62.19029,-66.44416 -82.90779,-88.8762 -85.1911,-92.24137 L 367,433.55499 v -3.84324 c 0,-5.46115 0.84431,-6.66454 15.2331,-21.71175 14.36502,-15.02236 15.55442,-15.91406 21.29439,-15.96456 l 4.0275,-0.0354 2.4725,1.69031 c 2.60506,1.78093 18.86288,16.80825 47.97251,44.34163 9.625,9.10382 18.78559,17.53602 20.35687,18.73822 l 2.85688,2.18581 1.79269,-0.95942 c 2.00178,-1.07132 4.37167,-3.50236 77.00278,-78.9898 36.95521,-38.40853 62.0189,-64.25365 64.24079,-66.2437 1.06663,-0.95532 3.68026,-2.20573 5.80809,-2.77869 l 3.86877,-1.04176 3.28656,1.42486 3.28657,1.42486 11.88746,12.00668 11.88745,12.00667 0.47501,4.94348 0.475,4.94348 -1.36246,2.58713 c -1.32102,2.50845 -4.30821,6.12542 -24.02742,29.09308 -5.13427,5.98007 -12.03504,14.10884 -15.33504,18.06395 -3.3,3.9551 -18.30383,21.56233 -33.34185,39.12716 -15.03802,17.56483 -33.11296,38.68605 -40.16652,46.93605 -7.05357,8.25 -19.72474,23.03836 -28.15815,32.86303 -8.43341,9.82467 -17.68343,20.69272 -20.5556,24.15121 -2.87217,3.4585 -6.82099,7.27634 -8.77516,8.48408 l -3.55304,2.1959 -5.72484,0.46631 -5.72484,0.46631 -4,-2.04456 z"
         id="path532" />
      <path
         style="fill:#31af77"
         d="M 507.42765,894.03455 C 504.24658,892.74719 484.72098,871.47568 443.6003,824.5 360.78168,729.88918 305.46456,660.15701 266.6989,601.5 l -11.89597,-18 -8.82698,-18 -8.82699,-18 -4.44619,-13 c -8.78555,-25.68769 -12.92325,-43.28899 -16.22046,-69 l -1.53889,-12 -0.006,-21.15137 -0.006,-21.15137 1.599,-13.84863 C 227.51754,302.18342 279.35049,219.24 359.16209,169.10701 390.74675,149.26737 429.49826,135.2278 470.5,128.76958 l 14,-2.20516 27.5,-0.001 27.5,-10e-4 11.5,1.79243 c 48.55797,7.56842 85.90409,21.78218 124,47.19382 12.65698,8.44276 28.08199,20.78359 30.24474,24.19739 l 1.74473,2.754 0.005,3.28212 c 0.003,1.80516 -0.62426,4.73016 -1.39367,6.5 l -1.39894,3.21788 -22.38744,22.2782 -22.38745,22.27821 -3.65934,0.59383 c -5.4718,0.88795 -7.69628,-0.0261 -16.35878,-6.72206 C 611.62336,232.45035 577.28857,217.96831 541,212.42028 l -11.5,-1.75819 -16.5,-0.0591 -16.5,-0.0591 -9,1.28494 c -53.35997,7.61829 -98.76499,31.47863 -132.95413,69.86739 l -8.73126,9.80378 -9.31401,14 c -19.20513,28.86747 -30.52963,56.86768 -35.99545,89 l -2.38145,14 -0.67397,13.5 -0.67397,13.5 1.16512,13.4851 c 4.60743,53.3264 27.78343,101.62204 66.73837,139.07372 32.1051,30.86617 70.34584,50.44427 113.32075,58.0168 l 11.5,2.0264 16,0.56903 16,0.56904 14.01692,-1.62988 14.01692,-1.62987 11.62074,-2.93486 c 37.50065,-9.4709 70.43283,-28.05925 99.2092,-55.99794 38.27783,-37.16356 60.72767,-83.80805 65.71988,-136.54754 l 1.1359,-12 -0.64981,-15.2429 -0.6498,-15.24289 -1.92791,-11.75711 c -3.37851,-20.60333 -10.30541,-43.02997 -17.99667,-58.26628 L 703,332.05703 l 0.0354,-4.27851 c 0.0195,-2.35319 0.58198,-5.23318 1.25,-6.39998 1.98635,-3.46953 44.98171,-47.39026 47.9149,-48.94616 C 753.68553,271.64457 756.71593,271 758.93456,271 h 4.03389 l 2.9475,2.75 2.94751,2.75 6.04597,12 c 20.0708,39.83639 31.60235,83.17929 33.94914,127.60248 l 0.86624,16.39752 -0.82906,15.12934 c -1.56254,28.51424 -6.3786,53.13734 -16.10437,82.3369 l -6.1684,18.51933 -9.23624,18.50721 -9.23624,18.50722 -13.3621,20 C 710.03446,672.48639 645.9577,750.71153 526.65996,884 l -7.60779,8.5 -2.77609,1.2049 c -3.2329,1.40316 -5.94604,1.50424 -8.84843,0.32965 z M 474.5,548.08228 l -4,-2.04457 -16.63127,-17.76885 c -62.19029,-66.44416 -82.90779,-88.8762 -85.1911,-92.24137 L 367,433.55499 v -3.84324 c 0,-5.46115 0.84431,-6.66454 15.2331,-21.71175 14.36502,-15.02236 15.55442,-15.91406 21.29439,-15.96456 l 4.0275,-0.0354 2.4725,1.69031 c 2.60506,1.78093 18.86288,16.80825 47.97251,44.34163 9.625,9.10382 18.78559,17.53602 20.35687,18.73822 l 2.85688,2.18581 1.79269,-0.95942 c 2.00178,-1.07132 4.37167,-3.50236 77.00278,-78.9898 36.95521,-38.40853 62.0189,-64.25365 64.24079,-66.2437 1.06663,-0.95532 3.68026,-2.20573 5.80809,-2.77869 l 3.86877,-1.04176 3.28656,1.42486 3.28657,1.42486 11.88746,12.00668 11.88745,12.00667 0.47501,4.94348 0.475,4.94348 -1.36246,2.58713 c -1.32102,2.50845 -4.30821,6.12542 -24.02742,29.09308 -5.13427,5.98007 -12.03504,14.10884 -15.33504,18.06395 -3.3,3.9551 -18.30383,21.56233 -33.34185,39.12716 -15.03802,17.56483 -33.11296,38.68605 -40.16652,46.93605 -7.05357,8.25 -19.72474,23.03836 -28.15815,32.86303 -8.43341,9.82467 -17.68343,20.69272 -20.5556,24.15121 -2.87217,3.4585 -6.82099,7.27634 -8.77516,8.48408 l -3.55304,2.1959 -5.72484,0.46631 -5.72484,0.46631 -4,-2.04456 z"
         id="path530" />
      <path
         style="fill:#485978"
         d="M 507.42765,894.03455 C 504.24658,892.74719 484.72098,871.47568 443.6003,824.5 360.78168,729.88918 305.46456,660.15701 266.6989,601.5 l -11.89597,-18 -8.82698,-18 -8.82699,-18 -4.44619,-13 c -8.78555,-25.68769 -12.92325,-43.28899 -16.22046,-69 l -1.53889,-12 -0.006,-21.15137 -0.006,-21.15137 1.599,-13.84863 C 227.51754,302.18342 279.35049,219.24 359.16209,169.10701 390.74675,149.26737 429.49826,135.2278 470.5,128.76958 l 14,-2.20516 27.5,-0.001 27.5,-10e-4 11.5,1.79243 c 48.55797,7.56842 85.90409,21.78218 124,47.19382 12.65698,8.44276 28.08199,20.78359 30.24474,24.19739 l 1.74473,2.754 0.005,3.28212 c 0.003,1.80516 -0.62426,4.73016 -1.39367,6.5 l -1.39894,3.21788 -22.38744,22.2782 -22.38745,22.27821 -3.65934,0.59383 c -5.4718,0.88795 -7.69628,-0.0261 -16.35878,-6.72206 C 611.62336,232.45035 577.28857,217.96831 541,212.42028 l -11.5,-1.75819 -16.5,-0.0591 -16.5,-0.0591 -9,1.28494 c -53.35997,7.61829 -98.76499,31.47863 -132.95413,69.86739 l -8.73126,9.80378 -9.31401,14 c -19.20513,28.86747 -30.52963,56.86768 -35.99545,89 l -2.38145,14 -0.67397,13.5 -0.67397,13.5 1.16512,13.4851 c 4.60743,53.3264 27.78343,101.62204 66.73837,139.07372 32.1051,30.86617 70.34584,50.44427 113.32075,58.0168 l 11.5,2.0264 16,0.56903 16,0.56904 14.01692,-1.62988 14.01692,-1.62987 11.62074,-2.93486 c 37.50065,-9.4709 70.43283,-28.05925 99.2092,-55.99794 38.27783,-37.16356 60.72767,-83.80805 65.71988,-136.54754 l 1.1359,-12 -0.64981,-15.2429 -0.6498,-15.24289 -1.92791,-11.75711 c -3.37851,-20.60333 -10.30541,-43.02997 -17.99667,-58.26628 L 703,332.05703 l 0.0354,-4.27851 c 0.0195,-2.35319 0.58198,-5.23318 1.25,-6.39998 1.98635,-3.46953 44.98171,-47.39026 47.9149,-48.94616 C 753.68553,271.64457 756.71593,271 758.93456,271 h 4.03389 l 2.9475,2.75 2.94751,2.75 6.04597,12 c 20.0708,39.83639 31.60235,83.17929 33.94914,127.60248 l 0.86624,16.39752 -0.82906,15.12934 c -1.56254,28.51424 -6.3786,53.13734 -16.10437,82.3369 l -6.1684,18.51933 -9.23624,18.50721 -9.23624,18.50722 -13.3621,20 C 710.03446,672.48639 645.9577,750.71153 526.65996,884 l -7.60779,8.5 -2.77609,1.2049 c -3.2329,1.40316 -5.94604,1.50424 -8.84843,0.32965 z"
         id="path528" />
      <path
         style="fill:#314874"
         d="m 504.58198,890.93783 c -1.91819,-1.68419 -10.59635,-11.00816 -19.2848,-20.71993 -8.68845,-9.71178 -18.3041,-20.3713 -21.3681,-23.68784 C 451.58982,833.17384 396.34259,769.05001 380,749.11606 375.325,743.41371 367.89622,734.41732 363.49161,729.12408 341.69542,702.93053 313.3961,666.30558 288.83223,632.5 273.78715,611.79449 253.48136,580.34015 249.59407,571.7188 248.29986,568.84846 244.88744,561.60374 242.01091,555.61942 229.01839,528.5898 218.78164,487.88048 215.88898,451.73816 L 214.74943,437.5 l 0.62693,-15.7113 c 3.53515,-88.59398 41.78291,-168.37195 108.3508,-226.00035 42.34973,-36.66252 95.45289,-59.75896 154.77284,-67.31616 l 12,-1.52877 21.23644,-0.006 21.23643,-0.006 12.26357,1.56293 C 593.9212,134.698 636.27908,150.31036 675,176.32191 c 8.61007,5.78399 26.65871,19.90622 29.25,22.88677 l 1.75,2.01289 v 4.43887 4.43888 l -1.42507,2.70034 c -0.78379,1.48519 -11.49419,12.71284 -23.80088,24.95034 L 658.39824,260 h -4.95521 -4.95521 l -9.15919,-6.96352 C 609.7857,230.57569 575.54232,216.46864 538.43425,211.47158 l -12.78905,-1.7222 -19.0726,0.54747 -19.0726,0.54747 -8.63862,1.51163 C 418.74134,222.87604 367.12613,256.64849 334.62621,306.73078 316.96216,333.95102 305.325,362.86387 299.70236,393.5 l -2.20236,12 0.0181,27 0.0181,27 1.80644,8.5 c 1.75131,8.2406 6.61984,27.39973 8.51268,33.5 1.45638,4.69359 7.75337,18.92407 13.09874,29.60162 15.17014,30.30286 43.90289,62.33185 73.49979,81.93175 28.88088,19.12573 55.43166,29.5085 88.54615,34.62629 l 11.5,1.7773 18.5,-0.0674 18.5,-0.0674 10.36348,-1.64175 c 45.19736,-7.16 85.13057,-27.348 119.0014,-60.16048 l 12.38706,-12 10.16562,-13.5 10.16562,-13.5 6.15439,-11.18204 c 16.54068,-30.05314 25.17563,-59.04751 27.11761,-91.05528 L 727.71899,432.0253 726.85235,417.26261 725.98571,402.5 724.00765,392 c -3.74927,-19.90193 -8.45781,-34.39378 -19.01334,-58.51882 l -2.1959,-5.01881 1.10048,-3.98119 1.10048,-3.98118 23.83312,-24.13382 23.83311,-24.13382 2.99348,-0.65748 2.99347,-0.65748 2.9219,1.1109 c 4.67316,1.77674 6.10429,3.62554 12.30782,15.89976 8.02467,15.87752 16.06253,36.38188 21.98062,56.07194 l 4.95927,16.5 2.53247,14.5 c 1.39286,7.975 3.09808,19 3.78938,24.5 l 1.25692,10 -0.0261,22.5 -0.0261,22.5 -1.75114,13 c -0.96313,7.15 -3.10611,19.525 -4.76218,27.5 l -3.01103,14.5 -5.99342,18 -5.99341,18 -6.65172,14.5 c -22.15449,48.29435 -91.02071,138.7064 -200.32523,263 -45.47825,51.71476 -60.22631,67.96918 -63.25379,69.71456 -1.15871,0.66802 -3.55358,1.23052 -5.32194,1.25 l -3.21521,0.0354 -3.48761,-3.06217 z"
         id="path526" />
    </g>
  </g>
</svg>
